<?xml version="1.0" standalone="no"?>
<!DOCTYPE svg PUBLIC "-//W3C//DTD SVG 20010904//EN"
 "http://www.w3.org/TR/2001/REC-SVG-20010904/DTD/svg10.dtd">
<svg version="1.0" xmlns="http://www.w3.org/2000/svg"
 width="64.000000pt" height="64.000000pt" viewBox="0 0 64.000000 64.000000"
 preserveAspectRatio="xMidYMid meet">

<g transform="translate(0.000000,64.000000) scale(0.100000,-0.100000)"
fill="#000000" stroke="none">
<path d="M307 332 c-119 -119 -217 -223 -217 -230 0 -22 24 -12 65 28 l40 39
45 -15 c92 -32 212 0 290 78 67 68 66 110 -4 181 l-45 44 35 34 c35 34 44 59
21 59 -7 0 -110 -98 -230 -218z m194 49 c51 -51 50 -74 -5 -126 -66 -64 -171
-92 -241 -65 -23 9 -25 13 -15 26 10 11 24 13 55 8 80 -12 135 44 121 122 -6
27 -3 41 10 55 24 26 31 24 75 -20z m-121 -61 c0 -11 -9 -29 -20 -40 -19 -19
-60 -28 -60 -13 0 10 62 73 72 73 4 0 8 -9 8 -20z"/>
<path d="M234 486 c-90 -29 -174 -110 -174 -168 0 -24 38 -84 62 -99 7 -4 18
-3 25 3 10 8 7 18 -17 45 -41 46 -38 69 14 119 51 49 125 77 191 73 43 -3 77
12 62 28 -14 13 -122 13 -163 -1z"/>
<path d="M271 406 c-13 -7 -30 -24 -37 -37 -15 -26 -18 -59 -6 -59 9 1 102 95
102 104 0 10 -34 6 -59 -8z"/>
</g>
</svg>
