<?xml version="1.0" standalone="no"?>
<!DOCTYPE svg PUBLIC "-//W3C//DTD SVG 20010904//EN"
 "http://www.w3.org/TR/2001/REC-SVG-20010904/DTD/svg10.dtd">
<svg version="1.0" xmlns="http://www.w3.org/2000/svg"
 width="512.000000pt" height="512.000000pt" viewBox="0 0 512.000000 512.000000"
 preserveAspectRatio="xMidYMid meet">

<g transform="translate(0.000000,512.000000) scale(0.100000,-0.100000)"
fill="#000000" stroke="none">
<path d="M2390 4260 c-992 -62 -1885 -647 -2327 -1525 -62 -124 -65 -133 -61
-188 4 -47 16 -81 62 -169 238 -457 588 -835 1022 -1104 444 -275 944 -416
1474 -416 459 1 844 91 1249 293 297 148 491 288 732 528 228 228 376 430 518
704 52 99 56 113 56 175 0 60 -5 77 -48 162 -142 279 -297 491 -526 721 -242
241 -436 381 -732 528 -446 222 -930 321 -1419 291z m423 -475 c445 -52 849
-217 1193 -486 128 -100 325 -302 423 -432 85 -113 191 -284 191 -307 0 -23
-106 -194 -191 -307 -89 -118 -274 -312 -384 -400 -477 -386 -1087 -577 -1670
-523 -591 55 -1112 304 -1513 725 -174 182 -371 467 -358 517 3 13 35 69 71
126 187 299 476 584 769 761 208 126 511 245 738 291 246 50 501 62 731 35z"/>
<path d="M2393 3495 c-228 -41 -433 -164 -577 -346 -250 -316 -274 -751 -60
-1096 64 -104 206 -244 312 -307 94 -56 244 -110 352 -127 92 -14 282 -6 365
16 319 84 568 312 671 612 74 217 74 409 0 626 -149 436 -607 705 -1063 622z
m321 -477 c197 -64 327 -244 327 -453 1 -140 -44 -250 -142 -347 -235 -236
-632 -165 -777 139 -37 77 -37 79 -37 203 0 124 0 126 37 203 108 226 356 333
592 255z"/>
</g>
</svg>
