<?xml version="1.0" encoding="UTF-8"?>
<svg xmlns="http://www.w3.org/2000/svg" xmlns:xlink="http://www.w3.org/1999/xlink" viewBox="0 0 286 180">
  <defs>
    <style>
      .cls-1 {
        opacity: .1;
      }

      .cls-2 {
        fill: #f4a6f4;
      }

      .cls-3 {
        fill: #f0f0f0;
      }

      .cls-4 {
        fill: #f5f5f5;
      }

      .cls-5 {
        fill: #e7e7e7;
      }

      .cls-6 {
        fill: #fff;
      }

      .cls-7 {
        fill: #ececec;
      }

      .cls-8 {
        fill: #ffbea7;
      }

      .cls-9 {
        fill: #ff9a79;
      }

      .cls-10 {
        fill: #fafafa;
      }

      .cls-11 {
        fill: #ffaaa8;
      }

      .cls-12 {
        fill: #ff9090;
      }

      .cls-13 {
        fill: #d268cc;
      }

      .cls-14 {
        fill: #c4c4c4;
      }

      .cls-15 {
        fill: #c76668;
      }

      .cls-16 {
        fill: #d3f4ee;
      }

      .cls-17 {
        fill: #e1e1e1;
      }

      .cls-18 {
        fill: #e2bb17;
      }

      .cls-19 {
        fill: #1086b5;
      }

      .cls-20, .cls-21, .cls-22 {
        fill: #0d6182;
      }

      .cls-23 {
        fill: #375a64;
      }

      .cls-24 {
        fill: #1a2e35;
      }

      .cls-25 {
        fill: #61af61;
      }

      .cls-26 {
        fill: #2b454e;
      }

      .cls-27 {
        fill: #262523;
      }

      .cls-28 {
        fill: #38633d;
      }

      .cls-29 {
        fill: #605c60;
      }

      .cls-30 {
        fill: #774f74;
      }

      .cls-31 {
        opacity: .15;
      }

      .cls-32, .cls-21 {
        opacity: .3;
      }

      .cls-33, .cls-22 {
        opacity: .4;
      }

      .cls-34 {
        opacity: .35;
      }

      .cls-35 {
        opacity: .65;
      }

      .cls-36 {
        opacity: .8;
      }
    </style>
  </defs>
  <g id="Capa_12" data-name="Capa 12">
    <g class="cls-36">
      <path class="cls-16" d="M199.43,37.59c23.29-12.44,44.62,.57,45.02,.82,39.82,25.01,40.81,143.54,13.18,139.82-50.7-6.82-154.55,7.17-229.6,2.64C-8.03,178.7,.39,91.74,20.67,50.02c6.76-13.9,22.91-20.46,37.43-15.16,29.64,10.8,93.26,28.4,141.33,2.73Z"/>
    </g>
    <g>
      <g id="Board">
        <path class="cls-17" d="M129.15,55.89l.29,.17v41.7c0,.95-.58,2.06-1.29,2.47l-39.65,22.89c-.31,.18-.59,.2-.81,.09-.06-.03-.28-.16-.33-.19-.27-.16-.44-.52-.44-1.04v-41.69l42.23-24.38Z"/>
        <g>
          <path class="cls-10" d="M87.99,123.11c-.37,0-.62-.38-.62-.97v-41.6l41.91-24.19v41.41c0,.9-.54,1.94-1.21,2.33l-39.65,22.89c-.15,.09-.3,.13-.43,.13h0Z"/>
          <path class="cls-17" d="M129.11,56.63v41.13c0,.83-.52,1.83-1.13,2.19l-39.65,22.89c-.13,.07-.25,.11-.35,.11-.33,0-.45-.43-.45-.81v-41.5l41.58-24.01m.33-.57l-42.23,24.38v41.69c0,.71,.32,1.13,.78,1.13,.16,0,.33-.05,.51-.15l39.65-22.89c.71-.41,1.29-1.52,1.29-2.47V56.06h0Z"/>
        </g>
      </g>
      <polygon class="cls-17" points="92.26 116.74 123.01 98.98 123.01 63.97 92.26 81.72 92.26 116.74"/>
      <g>
        <path class="cls-14" d="M93.52,116.34l-.14-.08c-.23-.13-.41-.45-.41-.71v-32.93c0-.26,.18-.58,.41-.71l29.65-17.15c.23-.13,.59-.13,.82,0l.14,.08c.23,.13,.41,.45,.41,.71v32.93c0,.26-.18,.58-.41,.71l-29.65,17.15c-.23,.13-.59,.13-.82,0Z"/>
        <path class="cls-23" d="M92.97,82.62v32.93c0,.26,.18,.58,.41,.71l.14,.08c.2,.11,.51,.13,.73,.04-.19,.05-.32-.05-.32-.28v-32.93c0-.13,.05-.27,.12-.4l-.96-.55c-.07,.13-.12,.27-.12,.4Z"/>
        <g>
          <path class="cls-10" d="M94.15,116.3c-.11,0-.13-.14-.13-.19v-32.93c0-.23,.16-.51,.36-.62l29.65-17.15s.09-.04,.13-.04c.11,0,.13,.13,.13,.19v32.93c0,.22-.16,.51-.36,.62l-29.65,17.15s-.09,.04-.13,.04Z"/>
          <path class="cls-29" d="M124.16,65.46h0s.02,.03,.02,.09v32.93c0,.19-.14,.44-.31,.54l-29.65,17.15s-.07,.03-.09,.03c0,0,0,0,0,0,0,0-.02-.03-.02-.09v-32.93c0-.19,.14-.44,.31-.54l29.65-17.15s.07-.03,.08-.03m0-.2c-.05,0-.12,.02-.18,.06l-29.65,17.15c-.23,.13-.41,.45-.41,.71v32.93c0,.18,.09,.29,.23,.29,.05,0,.12-.02,.18-.06l29.65-17.15c.23-.13,.41-.45,.41-.71v-32.93c0-.18-.09-.29-.23-.29h0Z"/>
        </g>
      </g>
      <g>
        <path class="cls-13" d="M120.81,70c-.39,.22-.7,.77-.7,1.21s.31,.63,.7,.4c.39-.22,.7-.77,.7-1.21,0-.45-.31-.63-.7-.4Z"/>
        <path class="cls-7" d="M119.57,71.37c0,.31-.23,.69-.52,.86l-4.77,2.76c-.28,.16-.52,.05-.52-.26,0-.31,.23-.69,.52-.86l4.77-2.76c.28-.16,.52-.05,.52,.26Z"/>
        <path class="cls-13" d="M120.81,73.35c-.39,.22-.7,.77-.7,1.21s.31,.63,.7,.4c.39-.22,.7-.77,.7-1.21,0-.45-.31-.63-.7-.4Z"/>
        <path class="cls-25" d="M120.81,73.35c-.39,.22-.7,.77-.7,1.21s.31,.63,.7,.4c.39-.22,.7-.77,.7-1.21,0-.45-.31-.63-.7-.4Z"/>
        <path class="cls-7" d="M119.57,74.72c0,.31-.23,.69-.52,.86l-4.77,2.76c-.28,.16-.52,.05-.52-.26s.23-.69,.52-.86l4.77-2.76c.28-.16,.52-.05,.52,.26Z"/>
      </g>
      <path class="cls-25" d="M109.37,90.36v-9.65c2.56-1.45,4.89,.01,5.71,3.43,1.01,4.22-.67,10.79-3.77,14.29l-1.94-8.06Z"/>
      <path class="cls-5" d="M109.06,99.9c-.52,.3-1.03,.48-1.56,.56l1.56-8.3,1.56,6.49c-.53,.53-1.04,.94-1.56,1.24Z"/>
      <path class="cls-13" d="M109.06,99.9c-.52,.3-1.03,.48-1.56,.56l1.56-8.3,1.56,6.49c-.53,.53-1.04,.94-1.56,1.24Z"/>
      <g class="cls-36">
        <path class="cls-19" d="M109.06,99.9c-.52,.3-1.03,.48-1.56,.56l1.56-8.3,1.56,6.49c-.53,.53-1.04,.94-1.56,1.24Z"/>
      </g>
      <path class="cls-5" d="M106.81,101.02c-1.68,.07-3.07-1.28-3.67-3.53l5.43-5.85-1.76,9.38Z"/>
      <path class="cls-13" d="M106.81,101.02c-1.68,.07-3.07-1.28-3.67-3.53l5.43-5.85-1.76,9.38Z"/>
      <g class="cls-35">
        <path class="cls-18" d="M106.81,101.02c-1.68,.07-3.07-1.28-3.67-3.53l5.43-5.85-1.76,9.38Z"/>
      </g>
      <path class="cls-5" d="M103.25,96.37c-.14-.71-.2-1.42-.2-2.28,0-4.95,2.53-10.46,5.7-12.54v8.9l-5.5,5.93Z"/>
      <path class="cls-13" d="M103.25,96.37c-.14-.71-.2-1.42-.2-2.28,0-4.95,2.53-10.46,5.7-12.54v8.9l-5.5,5.93Z"/>
      <g class="cls-34">
        <path class="cls-2" d="M103.25,96.37c-.14-.71-.2-1.42-.2-2.28,0-4.95,2.53-10.46,5.7-12.54v8.9l-5.5,5.93Z"/>
      </g>
      <path class="cls-23" d="M113.43,84.93s-.01-.05,0-.1c.02-.07,.06-.15,.1-.17l.37-.21s.05,.02,.03,.09c-.02,.07-.06,.15-.1,.17l-.37,.21s-.02,0-.03,0Zm.74-.43s-.01-.05,0-.1c.02-.07,.06-.15,.1-.17l.37-.21s.05,.02,.03,.09c-.02,.07-.06,.15-.1,.17l-.37,.21s-.02,0-.03,0Zm.74-.43s-.01-.05,0-.1c.02-.07,.06-.15,.1-.17l.37-.21s.05,.02,.03,.09c-.02,.07-.06,.15-.1,.17l-.37,.21s-.02,0-.03,0Zm.74-.43s-.01-.05,0-.1c.02-.07,.06-.15,.1-.17l.37-.21s.05,.02,.03,.09c-.02,.07-.06,.15-.1,.17l-.37,.21s-.02,0-.03,0Zm.74-.43s-.01-.05,0-.1c.02-.07,.06-.15,.1-.17l.37-.21s.05,.02,.03,.09c-.02,.07-.06,.15-.1,.17l-.37,.21s-.02,0-.03,0Zm.74-.43s-.01-.05,0-.1c.02-.07,.06-.15,.1-.17l.27-.16s.05,.02,.03,.09c-.02,.07-.06,.15-.1,.17l-.27,.16s-.02,0-.03,0Z"/>
      <path class="cls-23" d="M101.22,91.85s-.01-.05,0-.09c.02-.07,.06-.15,.1-.17l.37-.21s.05,.02,.03,.09c-.02,.07-.06,.15-.1,.17l-.37,.21s-.02,0-.03,0Zm.74-.43s-.01-.05,0-.1c.02-.07,.06-.15,.1-.17l.37-.21s.05,.02,.03,.09c-.02,.07-.06,.15-.1,.17l-.37,.21s-.02,0-.03,0Zm.74-.43s-.01-.05,0-.09c.02-.07,.06-.15,.1-.17l.37-.21s.05,.02,.03,.09c-.02,.07-.06,.15-.1,.17l-.37,.21s-.02,0-.03,0Zm.74-.43s-.01-.05,0-.1c.02-.07,.06-.15,.1-.17l.37-.21s.05,.02,.03,.09c-.02,.07-.06,.15-.1,.17l-.37,.21s-.02,0-.03,0Zm.74-.43s-.01-.05,0-.1c.02-.07,.06-.15,.1-.17l.37-.21s.05,.02,.03,.09c-.02,.07-.06,.15-.1,.17l-.37,.21s-.02,0-.03,0Zm.74-.43s-.01-.05,0-.1c.02-.07,.06-.15,.1-.17l.26-.15s.05,.02,.03,.09c-.02,.07-.06,.15-.1,.17l-.26,.15s-.02,0-.03,0Z"/>
      <path class="cls-23" d="M112.85,85.17c0-.19,.1-.41,.23-.48,.13-.07,.23,.03,.23,.22s-.1,.41-.23,.48c-.13,.07-.23-.03-.23-.22Z"/>
      <path class="cls-23" d="M105.11,89.51c0-.19,.1-.41,.23-.48,.13-.07,.23,.03,.23,.22s-.1,.41-.23,.48c-.13,.07-.23-.03-.23-.22Z"/>
      <path class="cls-23" d="M108.83,99.07c0-.19,.1-.41,.23-.48,.13-.07,.23,.03,.23,.22s-.1,.41-.23,.48c-.13,.07-.23-.03-.23-.22Z"/>
      <path class="cls-23" d="M101.62,104.28s-.01-.05,0-.1c.02-.07,.06-.15,.1-.17l.37-.21s.05,.02,.03,.09c-.02,.07-.06,.15-.1,.17l-.37,.21s-.02,0-.03,0Zm.74-.43s-.01-.05,0-.1c.02-.07,.06-.15,.1-.17l.37-.21s.05,.02,.03,.09c-.02,.07-.06,.15-.1,.17l-.37,.21s-.02,0-.03,0Zm.74-.43s-.01-.05,0-.1c.02-.07,.06-.15,.1-.17l.37-.21s.05,.02,.03,.09c-.02,.07-.06,.15-.1,.17l-.37,.21s-.02,0-.03,0Zm.74-.43s-.01-.05,0-.1c.02-.07,.06-.15,.1-.17l.37-.21s.05,.02,.03,.09c-.02,.07-.06,.15-.1,.17l-.37,.21s-.02,0-.03,0Zm.74-.43s-.01-.05,0-.1c.02-.07,.06-.15,.1-.17l.37-.21s.05,.02,.03,.09c-.02,.07-.06,.15-.1,.17l-.37,.21s-.02,0-.03,0Zm.53-.63s0-.02,0-.03v-.57c0-.05,.03-.14,.07-.19,.04-.05,.07-.06,.07,0v.57c0,.05-.03,.14-.07,.19-.03,.04-.05,.05-.06,.04Zm0-1.14s0-.02,0-.03v-.57c0-.05,.03-.14,.07-.19,.04-.05,.07-.05,.07,0v.57c0,.05-.03,.14-.07,.19-.03,.04-.05,.05-.06,.04Zm0-1.14s0-.02,0-.03v-.56c0-.05,.03-.14,.07-.19,.04-.05,.07-.05,.07,0v.56c0,.05-.03,.14-.07,.19-.03,.04-.05,.05-.06,.04Z"/>
      <path class="cls-23" d="M104.95,98.75c0-.19,.1-.41,.23-.48,.13-.07,.23,.03,.23,.22s-.1,.41-.23,.48c-.13,.07-.23-.03-.23-.22Z"/>
      <g>
        <path class="cls-23" d="M109,102.05s0-.02,0-.03v-.34c0-.05,.03-.14,.07-.19,.04-.05,.07-.05,.07,0v.28s.11-.07,.11-.07c.03-.02,.05,.02,.03,.09-.02,.07-.06,.15-.1,.17l-.15,.09s-.02,0-.03,0Zm.52-.3s-.01-.05,0-.09c.02-.07,.06-.15,.1-.17l.37-.21s.05,.02,.03,.09c-.02,.07-.06,.15-.1,.17l-.37,.21s-.02,0-.03,0Zm-.52-.61s0-.02,0-.03v-.57c0-.05,.03-.14,.07-.19,.04-.05,.07-.05,.07,0v.57c0,.05-.03,.14-.07,.19-.03,.04-.05,.05-.06,.04Zm1.26,.18s-.01-.05,0-.1c.02-.07,.06-.15,.1-.17l.37-.21s.05,.02,.03,.09c-.02,.07-.06,.15-.1,.17l-.37,.21s-.02,0-.03,0Zm-1.26-1.32s0-.02,0-.03v-.57c0-.05,.03-.14,.07-.19,.04-.05,.07-.05,.07,0v.57c0,.05-.03,.14-.07,.19-.03,.04-.05,.05-.06,.04Zm2,.89s-.01-.05,0-.1c.02-.07,.06-.15,.1-.17l.37-.21s.05,.02,.03,.09c-.02,.07-.06,.15-.1,.17l-.37,.21s-.02,0-.03,0Zm.74-.43s-.01-.05,0-.1c.02-.07,.06-.15,.1-.17l.37-.21s.05,.02,.03,.09c-.02,.07-.06,.15-.1,.17l-.37,.21s-.02,0-.03,0Zm.74-.43s-.01-.05,0-.1c.02-.07,.06-.15,.1-.17l.37-.21s.05,.02,.03,.09c-.02,.07-.06,.15-.1,.17l-.37,.21s-.02,0-.03,0Z"/>
        <path class="cls-23" d="M113.22,99.61s-.01-.05,0-.1c.02-.07,.06-.15,.1-.17l.37-.21s.05,.02,.03,.09c-.02,.07-.06,.15-.1,.17l-.37,.21s-.02,0-.03,0Z"/>
        <path class="cls-23" d="M113.96,99.18s-.01-.05,0-.1c.02-.07,.06-.15,.1-.17l.37-.21s.05,.02,.03,.09c-.02,.07-.06,.15-.1,.17l-.37,.21s-.02,0-.03,0Z"/>
        <path class="cls-23" d="M114.71,98.75s-.01-.05,0-.1c.02-.07,.06-.15,.1-.17l.37-.21s.05,.02,.03,.09c-.02,.07-.06,.15-.1,.17l-.37,.21s-.02,0-.03,0Z"/>
        <path class="cls-23" d="M115.45,98.32s-.01-.05,0-.1c.02-.07,.06-.15,.1-.17l.37-.21s.05,.02,.03,.09c-.02,.07-.06,.15-.1,.17l-.37,.21s-.02,0-.03,0Z"/>
      </g>
      <path class="cls-17" d="M96.13,96.47l4.25-2.49c.16-.1,.3-.34,.3-.55,0-.21-.13-.3-.29-.21l-4.29,2.45c-.16,.09-.29,.35-.28,.57,0,.22,.15,.33,.31,.23Z"/>
      <path class="cls-17" d="M96.43,108.88l4.25-2.49c.16-.1,.3-.34,.3-.55s-.13-.3-.29-.21l-4.29,2.45c-.16,.09-.29,.35-.28,.57,0,.22,.15,.33,.31,.23Z"/>
      <path class="cls-17" d="M116.52,99.66l4.25-2.49c.16-.1,.3-.34,.3-.55,0-.21-.13-.3-.29-.21l-4.29,2.45c-.16,.09-.29,.35-.28,.57,0,.22,.15,.33,.31,.23Z"/>
      <path class="cls-17" d="M117.81,85.01l4.25-2.49c.16-.1,.3-.34,.3-.55,0-.21-.13-.3-.29-.21l-4.29,2.45c-.16,.09-.29,.35-.28,.57,0,.22,.15,.33,.31,.23Z"/>
      <g id="Tube">
        <path class="cls-23" d="M87,81.69l-.99-1.71,43.22-24.95h0c.13-.08,.31-.08,.51,.04,.39,.22,.7,.76,.7,1.21,0,.21-.07,.37-.19,.44h0s-.01,.01-.01,.01c0,0,0,0,0,0l-43.24,24.96Z"/>
        <path class="cls-24" d="M87.21,81.24c0-.45-.31-.99-.7-1.21-.39-.22-.7-.04-.7,.4s.31,.99,.7,1.21c.39,.22,.7,.04,.7-.4Z"/>
      </g>
      <g id="Chartacter">
        <g id="Bottom">
          <g>
            <polygon points="80.25 162.31 81.7 161.68 81.21 160.67 80.26 161.51 80.25 162.31"/>
            <path class="cls-24" d="M78.61,159.53s.02,1.06,0,1.36c-.02,.3,1.31,1.26,1.64,1.42v-.81c.29,.28,.46,.64,.76,1.16,.25,.44,.57,1.26,1.28,1.83,1.04,.84,2.68,1.28,4.35,1.35,1.67,.07,2.63-.31,3.11-.66,.48-.35,.63-.76,.52-1.17-.12-.41-11.66-4.49-11.66-4.49Z"/>
            <g>
              <path class="cls-23" d="M83.1,156.27l.02-.56c.31,0,.34,.81,.78,1.52,.6,.96,1.47,2.17,2.33,2.94,1.68,1.51,3.18,2.47,3.93,3.15,1,.91-.79,2.33-3.51,2.15-1.35-.09-3.75-.77-4.42-1.55-.67-.78-1.07-2-1.61-2.56-.54-.57-1.69-1.15-2.02-1.83-.18-.38-.08-1.25,.04-2,.11-.68,.14-1.73,.53-1.64l.03,.35c.16,.3,.53,.8,1.62,.99,.54,.09,2.17,.16,2.27-.95Z"/>
              <path class="cls-31" d="M81.71,157.26c.52-.04,1.08-.2,1.31-.65,0,0,0,0,0-.01,0,0-.14,.52,.34,1.08,.48,.56,3.53,4.49,3.53,4.49,0,0-2.84-3.25-3.38-3.86-.81-.9-1.06-1.01-1.81-1.04,0,0,0,0,0,0Z"/>
            </g>
            <g>
              <path class="cls-31" d="M82.38,158.3c-.01,.09-.09,.15-.19,.14-.09-.01-.16-.09-.15-.18,.01-.09,.09-.15,.19-.14,.09,.01,.16,.09,.15,.18Z"/>
              <path class="cls-31" d="M83.17,159.17c-.01,.09-.09,.15-.19,.14-.09-.01-.16-.09-.15-.18,.01-.09,.09-.15,.19-.14,.09,.01,.16,.09,.15,.18Z"/>
              <path class="cls-31" d="M83.97,160.04c-.01,.09-.09,.15-.19,.14s-.16-.09-.15-.18c.01-.09,.09-.15,.19-.14,.09,.01,.16,.09,.15,.18Z"/>
              <path class="cls-31" d="M84.77,160.91c-.01,.09-.09,.15-.19,.14-.09-.01-.16-.09-.15-.18,.01-.09,.09-.15,.19-.14,.09,.01,.16,.09,.15,.18Z"/>
              <path class="cls-31" d="M85.57,161.78c-.01,.09-.09,.15-.19,.14-.09-.01-.16-.09-.15-.18,.01-.09,.09-.15,.19-.14,.09,.01,.16,.09,.15,.18Z"/>
            </g>
            <path class="cls-24" d="M82.21,158.35s-.03,0-.04-.02c-.03-.03-.03-.07,0-.09,.03-.03,.84-.77,1.89-.71,0,0,0,0,0,0,.04,0,.06,.03,.06,.07,0,.04-.03,.06-.07,.06-.99-.06-1.78,.66-1.79,.67-.01,.01-.03,.02-.05,.02Z"/>
            <path class="cls-24" d="M83,159.22s-.03,0-.04-.02c-.03-.03-.03-.07,0-.09,.03-.03,.84-.77,1.89-.71,0,0,0,0,0,0,.04,0,.06,.03,.06,.07,0,.04-.03,.06-.07,.06-.99-.06-1.78,.66-1.79,.67-.01,.01-.03,.02-.05,.02Z"/>
            <path class="cls-24" d="M83.8,160.09s-.03,0-.04-.02c-.03-.03-.03-.07,0-.09,.03-.03,.84-.77,1.89-.71,0,0,0,0,0,0,.04,0,.06,.03,.06,.07,0,.04-.03,.06-.07,.06-.99-.06-1.78,.66-1.79,.67-.01,.01-.03,.02-.05,.02Z"/>
            <path class="cls-24" d="M84.6,160.96s-.03,0-.04-.02c-.03-.03-.02-.07,0-.09,.03-.03,.84-.77,1.89-.71,0,0,0,0,0,0,.04,0,.06,.03,.06,.07,0,.04-.03,.06-.07,.06-.99-.06-1.78,.66-1.79,.67-.01,.01-.03,.02-.05,.02Z"/>
            <path class="cls-24" d="M85.4,161.83s-.03,0-.04-.02c-.03-.03-.02-.07,0-.09,.03-.03,.84-.77,1.89-.71,0,0,0,0,0,0,.04,0,.06,.03,.06,.07,0,.04-.03,.06-.07,.06-.99-.06-1.78,.66-1.79,.67-.01,.01-.03,.02-.05,.02Z"/>
          </g>
          <g>
            <g>
              <path class="cls-24" d="M68.02,167.02c-.16,1.28-.42,2.11-.94,2.83-.52,.72-1.51,.86-2.26,.75-1.05-.15-2.12-.8-2.6-2.22-.29-.86-.18-1.86,.1-3.04l5.7,1.68Z"/>
              <path class="cls-23" d="M64.57,157.49c-.37,0-.59,1.72-.92,3.43-.35,1.83-1,2.83-1.27,4.06-.37,1.71-.3,2.49,.25,3.57,.56,1.08,3.19,2.29,4.38,.86,.97-1.17,1.09-2.52,1.12-4.25,.03-1.79,.04-3.05,.2-4.4,.16-1.29,.33-2.54,.02-2.7-.04,.19-.08,.43-.11,.61-.03,.14-.11,.84-.32,.83,0-.17,0-.32,.03-.49,.02-.15,.02-.31-.07-.42-.09-.12-.25-.16-.4-.2-.36-.09-.72-.17-1.08-.23-.18-.03-.37-.05-.55-.05-.15,0-.82-.06-.97-.02-.09,.03-.17,.08-.21,.16-.03,.06-.03,.13-.03,.2,0,.12-.03,.24-.07,.35-.02,.05-.06,.11-.11,.09-.04-.01-.06-.07-.05-.11,.01-.21,.05-.36,.08-.6,.01-.11,.04-.26,.05-.38,0-.11,.02-.22,.03-.33Z"/>
              <path class="cls-31" d="M63.71,165.48c-.01,.07,.04,.13,.11,.14,.07,.01,.14-.04,.15-.1,.01-.07-.04-.13-.11-.14-.07-.01-.14,.04-.15,.1Z"/>
              <path class="cls-31" d="M63.91,164.29c-.01,.07,.04,.13,.11,.14,.07,.01,.14-.04,.15-.1,.01-.07-.04-.13-.11-.14-.07-.01-.14,.04-.15,.1Z"/>
              <path class="cls-31" d="M64.1,163.18c-.01,.07,.04,.13,.11,.14,.07,.01,.14-.04,.15-.1s-.04-.13-.11-.14c-.07-.01-.14,.04-.15,.1Z"/>
              <path class="cls-31" d="M64.29,162.07c-.01,.07,.04,.13,.11,.14,.07,.01,.14-.04,.15-.1,.01-.07-.04-.13-.11-.14-.07-.01-.14,.04-.15,.1Z"/>
              <path class="cls-31" d="M67.2,162.42c-.01,.07,.04,.13,.11,.14,.07,.01,.14-.04,.15-.1,.01-.07-.04-.13-.11-.14-.07-.01-.14,.04-.15,.1Z"/>
              <path class="cls-31" d="M67.01,163.53c-.01,.07,.04,.13,.11,.14,.07,.01,.14-.04,.15-.1,.01-.07-.04-.13-.11-.14-.07-.01-.14,.04-.15,.1Z"/>
              <path class="cls-31" d="M66.82,164.65c-.01,.07,.04,.13,.11,.14s.14-.04,.15-.1c.01-.07-.04-.13-.11-.14-.07-.01-.14,.04-.15,.1Z"/>
              <path class="cls-31" d="M66.62,165.84c-.01,.07,.04,.13,.11,.14,.07,.01,.14-.04,.15-.1,.01-.07-.04-.13-.11-.14s-.14,.04-.15,.1Z"/>
              <polygon class="cls-31" points="65.5 166.33 67.03 158.07 66.55 158.03 65.5 166.33"/>
            </g>
            <g>
              <path class="cls-24" d="M63.83,165.56s.01,0,.02,0c.86-.13,2.31,.04,2.86,.34,.03,.02,.07,0,.09-.02,.02-.03,0-.07-.02-.09-.58-.32-2.04-.49-2.95-.35-.04,0-.06,.04-.05,.07,0,.03,.03,.05,.05,.05Z"/>
              <path class="cls-24" d="M64.03,164.38s.02,0,.03,0c.67-.26,2.22,0,2.85,.34,.03,.02,.07,0,.09-.02s0-.07-.02-.09c-.66-.36-2.26-.63-2.96-.35-.03,.01-.05,.05-.04,.08,0,.02,.03,.04,.05,.04Z"/>
              <path class="cls-24" d="M64.22,163.26s.02,0,.03,0c.67-.26,2.22,0,2.85,.34,.03,.02,.07,0,.09-.02,.02-.03,0-.07-.02-.09-.66-.36-2.25-.63-2.96-.35-.03,.01-.05,.05-.04,.08,0,.02,.03,.04,.05,.04Z"/>
              <path class="cls-24" d="M64.41,162.16s.02,0,.03,0c.67-.26,2.22,0,2.85,.34,.03,.02,.07,0,.09-.02,.02-.03,0-.07-.02-.09-.66-.36-2.25-.63-2.96-.35-.03,.01-.05,.05-.04,.08,0,.02,.03,.04,.05,.04Z"/>
            </g>
          </g>
          <g>
            <path class="cls-24" d="M67.38,115.38c-1,10.5-1.71,24.82-1.71,24.82-.09,.8-.92,4.19-1.37,8.13-.47,4.15-.92,11.93-.92,11.93,0,0,2.98,1.61,5.41,.85,0,0,2.78-13.07,4.09-17.95,1.24-4.62,3.2-13.38,3.2-13.38l1.14,8.71s-.21,3-.14,5.09c.07,2.44,1.52,14.19,1.52,14.19,0,0,3.23,1.91,5.78,.07,0,0,.36-16.08,.44-19.01,.15-5.9,.29-16.11,.17-23.54l-17.61,.1Z"/>
            <path d="M71.62,127.55c-.26,2.52-.55,5.03-.86,7.54-.15,1.26-.31,2.51-.48,3.77l-.25,1.88-.13,.94c-.04,.31-.11,.62-.16,.93-.46,2.49-1.18,7.01-1.68,9.49-.5,2.48-1.03,4.96-1.59,7.43,.37-2.5,.77-5,1.21-7.49,.44-2.49,1.12-7.02,1.6-9.5,.06-.31,.13-.62,.17-.93l.13-.94,.27-1.88c.18-1.25,.36-2.5,.56-3.75,.38-2.5,.78-5,1.21-7.49Z"/>
            <path d="M83.07,127c.24,2.36,.35,4.72,.43,7.09,.06,2.36,.14,4.74,.01,7.1-.09,2.36-.21,6.32-.33,8.69-.12,2.36-.26,4.72-.44,7.08,0-2.37,.02-4.73,.07-7.09,.05-2.36,.14-6.32,.23-8.69l.07-1.77,.02-.44v-.44s0-.89,0-.89v-3.54s0-3.54,0-3.54c0-1.18-.02-2.36-.05-3.55Z"/>
            <path d="M76.07,129.78l1.14-5.75s2.95-.37,4.47-1.67c0,0-1,1.72-3.78,2.37l-1.12,5.07,.43,8.68-1.14-8.71Z"/>
          </g>
        </g>
        <g id="Top">
          <g id="Arm">
            <path class="cls-26" d="M82.26,94.79c1.8,.53,2.02,.93,5.28,3.68,2.66,2.24,4.08,3.19,4.08,3.19,0,0,2.77,3.29,2.89,3.93,.12,.64-.12,2.22-1.34,3.14-.68,.51-1.46,.31-2.21-.08-.9-.48-1.35-.74-1.8-.99-3-1.74-5.41-3.33-5.41-3.33l-1.5-9.55Z"/>
            <g>
              <path class="cls-11" d="M101.31,92.74c-.45-.26-.52,.16-.68,.21,0,0,.45-.54-.32-.98-.48-.28-.7,.39-.71,.3,0-.04,.55-1.4,1-2.56,.43-1.1,.04-1.4-.14-1.49-.16-.08-.36,0-.76,.79-.39,.79-1.58,3.2-1.85,3.69-.27,.5-.46,.73-.65,.09-.17-.6-.33-1.17-.68-1.53-.59-.61-1.04-.33-.94,.14,.14,.66,.14,1.44,.25,2.53,.06,.57,.08,1.1,.15,1.48,.22,1.36-.57,1.99-1.49,3.08-.76,.89-1.54,1.61-3.29,3.39-1.66,1.69-1.44,5.4,.13,6.27,1.73,.97,2.21,.4,4.01-2.39,1.16-1.8,2.71-5.1,3.14-5.86,.43-.76,.58-1.23,1.18-1.61,.82-.52,1.18-1.06,1.62-1.87,.21-.39,.62-1.09,.88-1.67,.26-.56,.29-.98-.04-1.22-.45-.33-.57,.17-.61,.12-.05-.05,.43-.56-.21-.93Z"/>
              <path class="cls-12" d="M100.73,95.6c-.15-.22,0-.62,0-.62,0,0-.13,.23-.36,.31-.23,.08-.55-.07-.63-.27-.08-.21,.08-.52,.08-.52,0,0-.14,.15-.38,.22-.24,.07-.46-.08-.56-.38-.09-.3,.24-1.03,.59-1.71,0,0-.28,.27-.53,.76-.2,.37-.32,.63-.31,.92-.19-.25-.43-.45-.71-.58,.62,.6,1.08,2.23,.83,3.32,.43-.65,.46-1.47,.21-2.15,.2,.11,.44,.09,.57-.05,0,.16-.02,.39,.34,.6,.36,.21,.63,0,.63,0,0,0-.07,.25,.25,.41,.32,.16,.58-.02,.75-.33-.18,.26-.61,.29-.77,.08Z"/>
            </g>
          </g>
          <g id="Chest">
            <path class="cls-23" d="M68.14,95.4s-1.63,1.45-1.2,5.39c.38,3.43,.55,6.3,.59,7.63,.06,2.04-.45,8.87-.45,8.87,2.94,3.79,16.19,3.39,17.91,.11,0,0,0-4.72,0-9.27,0-3.34,.09-6.41-.33-8.37-.56-2.63-1.43-4.18-2.4-4.96l-4.33-1.19-3.97-.19-5.82,2Z"/>
          </g>
          <g id="Head">
            <path class="cls-24" d="M72.84,91.75c-.26-1.31-1.6-2.64-2.22-3.77-.6-1.09-.96-1.93-.92-2.97,.02-.62,.18-1.22,.7-1.68-.12-2.25,2.14-3.41,3.66-3.82,1.77-.48,3.22-.59,5.05,.17,.7,.29,1.56,.73,2.27,2.14,.26,.52,.33,1.4,.29,2.16,0,.07-.14,.35-.19,.4-.05,.05-.04,.24-.06,.31-.04,.21-.09,.41-.21,.59-.19,.27-.43,.55-.73,.7-.96,.49-2.02,.67-3.06,.91-.41,.1-.82,.19-1.23,.29-.07,.02-.45,.05-.49,.12,0,0-2.85,4.45-2.85,4.45Z"/>
            <g>
              <path class="cls-11" d="M71.25,90.11c.94,.53,1.55-.09,1.55-.09l-.24,3.95c.77,1.77,2.92,1.01,5.37,4.09,0,0,.78-1.29,.14-3.84l.12-1.33s.94-.02,1.56-.11c1.1-.17,1.66-1.14,2-2.6,.27-1.17,.34-2.58,.05-3.97-.07-.35-.11-.72-.09-1.08,.07-.96-.11-1.51-.38-2.31-1.16-.88-3.78-1.12-6.19,.43,.32,1.45-.21,2.61-1.25,3.2,.06,.39,.14,1.38-.51,1.38-.46,0-.51-.58-1-1.08-.5-.51-1.61-.61-2.02,.16-.57,1.08-.13,2.62,.9,3.2Z"/>
              <polygon class="cls-12" points="78.62 85.38 80.6 88.05 78.78 88.53 78.62 85.38"/>
              <path class="cls-24" d="M77.37,84.96l-1.01,.5c-.13-.29-.01-.63,.27-.77,.28-.14,.61-.01,.74,.27Z"/>
              <path class="cls-24" d="M81.24,85.19l-1-.53c.14-.28,.47-.39,.75-.25,.28,.15,.39,.5,.25,.78Z"/>
              <path class="cls-12" d="M78.19,92.89c-1.64-.15-2.93-.3-3.82-1.46-.55-.73-1.04-1.91-1.04-1.91,0,0,.21,1.44,.77,2.41,.43,.74,1.47,1.4,4.04,1.55l.05-.59Z"/>
            </g>
            <g>
              <path class="cls-24" d="M77.53,86.32c.02,.26-.17,.49-.42,.51-.25,.02-.47-.18-.49-.44-.02-.26,.17-.49,.42-.51,.25-.02,.47,.18,.49,.44Z"/>
              <path class="cls-15" d="M77.11,89.19l1.83,.49c-.15,.51-.69,.82-1.19,.69-.51-.13-.79-.66-.64-1.17Z"/>
              <path class="cls-12" d="M78.27,90.35c-.11-.55-.62-.94-1.2-.89,0,.42,.26,.79,.67,.91,.18,.05,.36,.04,.52-.01Z"/>
              <path class="cls-24" d="M80.44,85.65c.25,0,.46,.22,.45,.48,0,.26-.21,.47-.47,.47-.25,0-.46-.22-.45-.48,0-.26,.21-.47,.47-.47"/>
            </g>
          </g>
          <g id="Tie">
            <g>
              <path class="cls-26" d="M77.93,98.06s-.49-.32-.89-.75c-.4-.43-.59-.62-.74-.48-.22,.21-.86,1.37-1.03,1.77-.17,.39-.14,.39-.68,.03-1.04-.7-1.93-1.61-2.44-2.35-.72-1.04-.97-1.94-.97-1.94,0,0,.61-.85,.79-1.17,.35-.63,.33-.88,.69-.83v.44c.06,.55,.85,1.04,1.61,1.7,.76,.66,2,1.29,2.29,1.57,.21,.2,1.37,2.02,1.37,2.02Z"/>
              <path class="cls-26" d="M80.12,97.67c-.09,.22-.79-1.52-1.14-1.48-.17,.01-.48,.88-.66,1.2s-.28,.48-.39,.68c.21-.52,.27-1.88,.31-2.23,.07-.59-.17-1.61-.17-1.61l.12-1.33c.09,0,.2,0,.32,0,.09,.09,.4,.44,.49,.59,.34,.56,.97,1.57,1.08,2.23,.18,1.07,.08,1.87,.05,1.95Z"/>
            </g>
          </g>
          <g>
            <path class="cls-26" d="M68.85,95.16c-2.48,.8-4.1,1.15-4.98,2.99-.88,1.84-2.4,6.39-3.24,9.15-.72,2.36-1.1,4.51-.57,5.58l5.21-1.87,2.83-7.41s2.38-5.91,.76-8.44Z"/>
            <path class="cls-24" d="M65.93,107.36c-.46,.57-.97,.78-2.08,1.23-1.03,.42-2.23,.8-2.9,1.86,.23-1,.81-1.47,2.11-2.11,1.3-.64,3.18-1.37,3.18-1.37l-.32,.39Z"/>
            <path class="cls-11" d="M65.93,107.36c-.46,.57-.97,.78-2.08,1.23-1.03,.42-2.23,.8-2.9,1.86-.59,.93-1.21,1.71-.9,2.43,.22,.5,1.61,.88,2.95,.86,1.34-.02,2.31-1.07,3.71-1.95,1.2-.76,1.83-1.25,1.83-1.25l-2.62-3.18Z"/>
            <g>
              <path class="cls-11" d="M68.11,108.74c-.49-.5-.58-1-1.31-1.42-.73-.42-1.19-.4-1.97-.8-.78-.4-1.41-.6-2-.41-.59,.19-.5,.53-.05,.81s1.2,.64,1.73,1.03c.53,.39,1.04,.6,1.04,1.27,0,.67-.09,2.04-.24,3.16-.15,1.12-.37,2.03-.28,2.15,.08,.12,.56,.18,.86-.45,.3-.62,.68-2.9,.68-2.9,0,0,.22,1.58,.3,2.67,.09,1.09,.12,1.92,.15,2.15,.03,.23,.8,.05,.93-.77,.12-.82-.03-3.26-.03-3.26,0,0,.64,1.11,1.05,1.83,.41,.72,.92,1.7,1.09,1.94,.17,.24,.66-.19,.54-.84-.12-.65-.95-2.25-.95-2.25,0,0,1.01,1.06,1.19,1.16,.18,.1,.72,.02,.53-.7-.12-.48-.43-.79-1.24-1.72-.81-.93-.8-1.32-1.05-1.74-.33-.56-.59-.55-.95-.91Z"/>
              <path class="cls-12" d="M62.82,106.11c-.1,.04-.2,.08-.28,.15-.08,.06-.13,.17-.11,.26,.07,.19,.26,.31,.44,.41l1.13,.61c.19,.11,.37,.22,.55,.35,.17,.12,.35,.24,.53,.37,.17,.13,.35,.29,.45,.51,.1,.21,.1,.46,.09,.67-.03,.86-.1,1.71-.21,2.56-.06,.43-.13,.85-.21,1.27l-.13,.63c-.03,.21-.11,.42-.07,.63-.05-.21,0-.43,.02-.64l.08-.64c.06-.42,.11-.85,.15-1.27,.08-.85,.15-1.7,.17-2.55,0-.22,.01-.41-.07-.59-.08-.18-.22-.32-.39-.45-.17-.13-.35-.24-.52-.37-.17-.12-.35-.24-.53-.35l-1.1-.66c-.17-.12-.38-.25-.44-.48-.03-.12,.05-.23,.14-.29,.09-.06,.19-.1,.29-.13Z"/>
              <path class="cls-12" d="M66.09,109.12c.81,.36,1.6,0,1.71-.2-.05,.56-1.16,.88-1.71,.2Z"/>
              <path class="cls-12" d="M71.38,113.53c-.08,.1-.3,.14-.51-.04-.2-.17-.71-.74-.93-1-.23-.26-1.01-1.19-1.01-1.19l.71,1.34s1.01,1.06,1.19,1.16c.13,.08,.48,.05,.55-.28Z"/>
            </g>
          </g>
        </g>
      </g>
    </g>
    <g id="Character">
      <g id="Legs">
        <g>
          <path class="cls-24" d="M215.49,123.75c-.36,.97-2.05,.8-3.87,.85-1.47,.05-3.17-.22-4.1,.26-.93,.48-1.12,1.62,.42,2.91,1.93,1.61,4.47,1.43,5.9,1.57,1.43,.14,2.27,.64,3.57,.6,1.68-.05,2.66-.63,2.88-1.11,.22-.48-.03-4.08-.73-3.9,0,0,.07-.11-2.39-.2-1.72-.06-1.69-.99-1.69-.99Z"/>
          <path class="cls-11" d="M219.56,125.15c0-.06,.41-3.38,.41-3.38,0,0-.07-.29-2.06-.36-.98-.03-2.13-.85-2.23-.08-.11,.79-.19,2.41-.19,2.41-.36,.97-2.05,.8-3.87,.85-.31,0-.62,0-.94,0h-.02c-.97,.09-1.86,.81-.73,1.49,1.12,.68,2.82,.75,4.39,.8,1.88,.06,5.18,.13,5.25-1.74Z"/>
        </g>
        <path class="cls-26" d="M215,102.48c-.15,3.63,.34,20.73,.34,20.73,0,0,1.73,.83,4.54-.14l1.87-18.56-6.75-2.04Z"/>
        <g>
          <g>
            <path class="cls-24" d="M206.8,128c-.33,.98-2.95,1.41-4.76,1.53-1.46,.1-3.17-.12-4.09,.4-.91,.51-1.06,1.66,.52,2.89,1.98,1.54,5.44,.73,6.87,.82,1.43,.09,2.25,.39,3.4,.38,1.68-.02,2.26-.62,2.46-1.11s.39-4.06-.3-3.86c0,0,.07-.12-2.4-.12-1.72,0-1.72-.93-1.72-.93Z"/>
            <path class="cls-11" d="M210.92,129.27c0-.06,1.33-5.31,1.33-5.31,0,0-1.11,1.63-3.11,1.63-.98,0-2.15-.78-2.23,0-.08,.79-.07,1.5-.18,2.22-.11,.72-2.27,1.41-4.25,1.63-.3,.03-1.06,.13-1.38,.13h-.02c-1.1,.1-2.2,.97-1.05,1.61,1.15,.64,4.14,.01,5.71,.01,1.89,0,5.18-.04,5.18-1.91Z"/>
          </g>
          <path class="cls-28" d="M207.73,109.05c-.42,3.76-.83,14.41-.93,17.39,0,0,2.49,1.01,4.84,.3,0,0,3.29-10.69,3.04-14.71-.12-1.91-6.96-2.98-6.96-2.98Z"/>
        </g>
      </g>
      <g>
        <g>
          <path class="cls-24" d="M246.86,139.43l-2.7-22.57-2.21-.11,3.8,22.68h0c.01,.07,.06,.14,.15,.2,.21,.14,.56,.15,.79,.04,.12-.06,.18-.15,.17-.23h0Z"/>
          <g>
            <path class="cls-26" d="M216.57,114.81h-2.21l-3.22,21.31h0c0,.09,.04,.18,.16,.24,.22,.13,.57,.13,.79,0,.09-.05,.14-.12,.16-.19h0s4.32-21.37,4.32-21.37Z"/>
            <path class="cls-24" d="M214.36,114.81l-.9,5.95c.4,.35,1.2,.81,1.7,1.04l1.41-6.99h-2.21Z"/>
          </g>
          <g>
            <path class="cls-26" d="M232.08,147l-2.08-22.95-2.21-.11,3.18,23.06h0c.01,.07,.06,.14,.15,.2,.21,.14,.56,.15,.79,.04,.12-.06,.18-.15,.18-.23h0Z"/>
            <path class="cls-24" d="M230.3,127.4l-.3-3.35-2.21-.11,.5,3.63c.49,.15,1.37,.04,2.01-.16Z"/>
          </g>
          <path class="cls-24" d="M228.65,107.79h-2.21l-3.22,21.31h0c0,.09,.05,.18,.16,.24,.22,.13,.57,.13,.79,0,.09-.05,.14-.12,.16-.19h0s4.32-21.37,4.32-21.37Z"/>
        </g>
        <path class="cls-6" d="M213,114.37c-.31-1.75,1.11-3.11,3.79-4.91,2.68-1.81,6.1-3.6,7.75-4.36,2.24-1.03,4.53-.93,7.39,.54,3.98,2.05,15.96,9.31,15.96,9.31,0,0-17.91,10.11-21.36,9.66-3.45-.45-12.06-6.05-12.74-8.03-.68-1.97-.79-2.21-.79-2.21Z"/>
        <path class="cls-13" d="M228.26,122.49c-2.57,2.33-5.26,.32-9.51-2.44-4.81-3.12-5.76-5.68-5.76-5.68,0,0,0,1.91,.36,2.81,.36,.9,1.14,1.91,4.61,4.31,3.47,2.39,5.98,3.59,8.32,4.03l1.84-.25"/>
        <path class="cls-26" d="M218.75,120.05c-4.81-3.12-5.76-5.68-5.76-5.68,0,0,0,1.91,.36,2.81,.36,.9,1.14,1.91,4.61,4.31,3.47,2.39,5.98,3.59,8.32,4.03l1.84-.25,.14-2.79c-2.57,2.33-5.26,.32-9.51-2.44Z"/>
      </g>
      <g>
        <path class="cls-28" d="M242.42,107.04s-15.04-4.54-17.65-5.25c-2.61-.72-7.63-1.92-9.09-1.26-1.47,.66-2.21,1.42-2.34,3.53-.03,.4,0,2.33,0,2.33,0,0,7.27,2.25,13.22,2.25s15.87-1.6,15.87-1.6Z"/>
        <path class="cls-28" d="M243.48,105.55c.94,3.22,1.45,7.14-.81,9.47-1.64,1.69-5.82,5.59-14.81,5.21-4.07-.17-15.46-8.12-15.46-8.12,0,0-4.3-.68-4.33-2.19,0-.37-.42-.46-.35-.85,.62-3.3,2.69-4.91,5.58-4.68,4.81,.39,15.57,3.41,15.57,3.41l14.6-2.24Z"/>
        <polygon class="cls-11" points="226.07 79.69 227.58 86.21 233.1 85.06 231.19 77.84 226.07 79.69"/>
        <g>
          <g>
            <path class="cls-24" d="M216.17,87.11l8.78,10.02,.04,.26-.06,.2c-.03,.1-.1,.18-.2,.23l-9.45,4.7c-.07,.03-.15,.05-.22,.04-.07-.01-.14-.04-.18-.09l-8.56-10.29,.06-.2,9.78-4.87Z"/>
            <path class="cls-23" d="M215.13,102.36c.07,.01,.15,0,.22-.04l9.45-4.7c.09-.05,.17-.13,.2-.23,.03-.1,.02-.2-.04-.26l-8.47-10.18-10.09,5.03,8.56,10.29c.04,.05,.11,.08,.18,.09Z"/>
          </g>
          <g>
            <path class="cls-4" d="M216.67,86.36l8.42,10.12,.02,.11-.24,.78h0s-.04,.07-.09,.1l-9.45,4.7c-.09,.05-.21,.03-.27-.04l-8.42-10.12,.24-.78,9.78-4.87Z"/>
            <path class="cls-7" d="M206.89,91.24l.05,.06,.68,.81,.13,.15,7.56,9.1c.06,.07,.18,.09,.27,.04l9.45-4.7c.09-.05,.12-.14,.06-.21l-.06-.07-8.36-10.06-9.7,4.83h-.02s-.06,.04-.06,.04Z"/>
            <path class="cls-17" d="M215.43,101.42l-.24,.78s.1,0,.15-.02l9.45-4.7s.08-.06,.09-.1l.24-.78s-.04,.07-.09,.1l-9.45,4.7s-.1,.03-.15,.02Z"/>
          </g>
          <path class="cls-10" d="M206.92,91.13l.75,.9,.12,.14,7.55,9.08c.06,.07,.18,.09,.27,.04l8.46-4.21c.08-.04,.15-.07,.21-.11,.35-.18,.58-.36,.75-.56,0,0,.01-.02,.02-.02,.01-.02,.03-.03,.03-.05,.04-.08,.02-.16-.04-.2-.12-.07-.29-.19-.43-.36,0,0,0,0,0,0l-7.92-9.52-9.78,4.87Z"/>
          <g>
            <g>
              <path class="cls-1" d="M207.97,91.19c.05,.06,.03,.15-.06,.19-.09,.04-.2,.03-.25-.04-.05-.06-.03-.15,.06-.19,.09-.04,.2-.03,.25,.04Z"/>
              <path class="cls-13" d="M207.01,90.94c-.02,.05-.03,.11-.04,.17l.11-.05s.02-.07,.03-.1c.06-.2,.16-.35,.26-.4,.03-.02,.07-.02,.1-.02,.05,0,.09,.04,.14,.09,.13,.16,.19,.46,.16,.78,.03,0,.07,0,.1,0,.04-.35-.03-.7-.17-.88-.09-.11-.21-.14-.33-.08-.14,.07-.26,.25-.34,.5Z"/>
              <path class="cls-24" d="M206.95,91.17s0,.02,0,.03h.02s-.02-.03-.02-.03Z"/>
            </g>
            <g>
              <path class="cls-1" d="M208.91,90.72c.05,.06,.03,.15-.06,.19-.09,.04-.2,.03-.25-.04-.05-.06-.03-.15,.06-.19,.09-.04,.2-.03,.25,.04Z"/>
              <path class="cls-13" d="M207.96,90.47c-.02,.05-.03,.11-.04,.17l.11-.05s.02-.07,.03-.1c.06-.2,.16-.35,.26-.4,.03-.02,.07-.02,.1-.02,.05,0,.09,.04,.14,.09,.13,.16,.19,.46,.16,.78,.03,0,.07,0,.1,0,.04-.35-.03-.7-.17-.88-.09-.11-.21-.14-.33-.08-.14,.07-.26,.25-.34,.5Z"/>
            </g>
            <g>
              <path class="cls-1" d="M209.86,90.25c.05,.06,.03,.15-.06,.19-.09,.04-.2,.03-.25-.04-.05-.06-.03-.15,.06-.19,.09-.04,.2-.03,.25,.04Z"/>
              <path class="cls-13" d="M208.9,90c-.02,.05-.03,.11-.04,.17l.11-.05s.02-.07,.03-.1c.06-.2,.16-.35,.26-.4,.03-.02,.07-.02,.1-.02,.05,0,.09,.04,.14,.09,.13,.16,.19,.46,.16,.78,.03,0,.07,0,.1,0,.04-.35-.03-.7-.17-.88-.09-.11-.21-.14-.33-.08-.14,.07-.26,.25-.34,.5Z"/>
            </g>
            <g>
              <path class="cls-1" d="M210.81,89.78c.05,.06,.03,.15-.06,.19-.09,.04-.2,.03-.25-.04-.05-.06-.03-.15,.06-.19,.09-.04,.2-.03,.25,.04Z"/>
              <path class="cls-13" d="M209.85,89.52c-.02,.05-.03,.11-.04,.17l.11-.05s.02-.07,.03-.1c.06-.2,.16-.35,.26-.4,.03-.02,.07-.02,.1-.02,.05,0,.09,.04,.14,.09,.13,.16,.19,.46,.16,.78,.03,0,.07,0,.1,0,.04-.35-.03-.7-.17-.88-.09-.11-.21-.14-.33-.08-.14,.07-.26,.25-.34,.5Z"/>
            </g>
            <g>
              <path class="cls-1" d="M211.75,89.3c.05,.06,.03,.15-.06,.19-.09,.04-.2,.03-.25-.04-.05-.06-.03-.15,.06-.19,.09-.04,.2-.03,.25,.04Z"/>
              <path class="cls-13" d="M210.8,89.05c-.02,.05-.03,.11-.04,.17l.11-.05s.02-.07,.03-.1c.06-.2,.16-.35,.26-.4,.03-.02,.07-.02,.1-.02,.05,0,.09,.04,.14,.09,.13,.16,.19,.46,.16,.78,.03,0,.07,0,.1,0,.04-.35-.03-.7-.17-.88-.09-.11-.21-.14-.33-.08-.14,.07-.26,.25-.34,.5Z"/>
            </g>
            <g>
              <path class="cls-1" d="M212.7,88.83c.05,.06,.03,.15-.06,.19s-.2,.03-.25-.04c-.05-.06-.03-.15,.06-.19,.09-.04,.2-.03,.25,.04Z"/>
              <path class="cls-13" d="M211.74,88.58c-.02,.05-.03,.11-.04,.17l.11-.05s.02-.07,.03-.1c.06-.2,.16-.35,.26-.4,.03-.02,.07-.02,.1-.02,.05,0,.09,.04,.14,.09,.13,.16,.19,.46,.16,.78,.03,0,.07,0,.1,0,.03-.35-.03-.7-.17-.88-.09-.11-.21-.14-.33-.08-.14,.07-.26,.25-.34,.5Z"/>
            </g>
            <g>
              <path class="cls-1" d="M213.65,88.36c.05,.06,.03,.15-.06,.19-.09,.04-.2,.03-.25-.04s-.03-.15,.06-.19c.09-.04,.2-.03,.25,.04Z"/>
              <path class="cls-13" d="M212.69,88.11c-.02,.05-.03,.11-.04,.17l.11-.05s.02-.07,.03-.1c.06-.2,.16-.35,.26-.4,.03-.02,.07-.02,.1-.02,.05,0,.09,.04,.14,.09,.13,.16,.19,.46,.16,.78,.03,0,.07,0,.1,0,.03-.35-.03-.7-.17-.88-.09-.11-.21-.14-.33-.08-.14,.07-.26,.25-.34,.5Z"/>
            </g>
            <g>
              <path class="cls-1" d="M214.59,87.89c.05,.06,.03,.15-.06,.19-.09,.04-.2,.03-.25-.04-.05-.06-.03-.15,.06-.19s.2-.03,.25,.04Z"/>
              <path class="cls-13" d="M213.64,87.64c-.02,.05-.03,.11-.04,.17l.11-.05s.02-.07,.03-.1c.06-.2,.16-.35,.26-.4,.03-.02,.07-.02,.1-.02,.05,0,.09,.04,.14,.09,.13,.16,.19,.46,.16,.78,.03,0,.07,0,.1,0,.03-.35-.03-.7-.17-.88-.09-.11-.21-.14-.33-.08-.14,.07-.26,.25-.34,.5Z"/>
            </g>
            <g>
              <path class="cls-1" d="M215.54,87.42c.05,.06,.03,.15-.06,.19-.09,.04-.2,.03-.25-.04-.05-.06-.03-.15,.06-.19,.09-.04,.2-.03,.25,.04Z"/>
              <path class="cls-13" d="M214.58,87.17c-.02,.05-.03,.11-.04,.17l.11-.05s.02-.07,.03-.1c.06-.2,.16-.35,.26-.4,.03-.02,.07-.02,.1-.02,.05,0,.09,.04,.14,.09,.13,.16,.19,.46,.16,.78,.03,0,.07,0,.1,0,.04-.35-.03-.7-.17-.88-.09-.11-.21-.14-.33-.08-.14,.07-.26,.25-.34,.5Z"/>
            </g>
            <g>
              <path class="cls-1" d="M216.49,86.95c.05,.06,.03,.15-.06,.19-.09,.04-.2,.03-.25-.04-.05-.06-.03-.15,.06-.19,.09-.04,.2-.03,.25,.04Z"/>
              <path class="cls-13" d="M215.53,86.7c-.02,.05-.03,.11-.04,.17l.11-.05s.02-.07,.03-.1c.06-.2,.16-.35,.26-.4,.03-.02,.07-.02,.1-.02,.05,0,.09,.04,.14,.09,.13,.16,.19,.46,.16,.78,.03,0,.07,0,.1,0,.03-.35-.03-.7-.17-.88-.09-.11-.21-.14-.33-.08-.14,.07-.26,.25-.34,.5Z"/>
            </g>
          </g>
          <g class="cls-32">
            <path d="M207.01,90.94c-.02,.05-.03,.11-.04,.17l.11-.05s.02-.07,.03-.1c.06-.2,.16-.35,.26-.4,.03-.02,.07-.02,.1-.02,.05,0,.09,.04,.14,.09,.13,.16,.19,.46,.16,.78,.03,0,.07,0,.1,0,.04-.35-.03-.7-.17-.88-.09-.11-.21-.14-.33-.08-.14,.07-.26,.25-.34,.5Z"/>
            <path d="M207.96,90.47c-.02,.05-.03,.11-.04,.17l.11-.05s.02-.07,.03-.1c.06-.2,.16-.35,.26-.4,.03-.02,.07-.02,.1-.02,.05,0,.09,.04,.14,.09,.13,.16,.19,.46,.16,.78,.03,0,.07,0,.1,0,.04-.35-.03-.7-.17-.88-.09-.11-.21-.14-.33-.08-.14,.07-.26,.25-.34,.5Z"/>
            <path d="M208.9,90c-.02,.05-.03,.11-.04,.17l.11-.05s.02-.07,.03-.1c.06-.2,.16-.35,.26-.4,.03-.02,.07-.02,.1-.02,.05,0,.09,.04,.14,.09,.13,.16,.19,.46,.16,.78,.03,0,.07,0,.1,0,.04-.35-.03-.7-.17-.88-.09-.11-.21-.14-.33-.08-.14,.07-.26,.25-.34,.5Z"/>
            <path d="M209.85,89.52c-.02,.05-.03,.11-.04,.17l.11-.05s.02-.07,.03-.1c.06-.2,.16-.35,.26-.4,.03-.02,.07-.02,.1-.02,.05,0,.09,.04,.14,.09,.13,.16,.19,.46,.16,.78,.03,0,.07,0,.1,0,.04-.35-.03-.7-.17-.88-.09-.11-.21-.14-.33-.08-.14,.07-.26,.25-.34,.5Z"/>
            <path d="M210.8,89.05c-.02,.05-.03,.11-.04,.17l.11-.05s.02-.07,.03-.1c.06-.2,.16-.35,.26-.4,.03-.02,.07-.02,.1-.02,.05,0,.09,.04,.14,.09,.13,.16,.19,.46,.16,.78,.03,0,.07,0,.1,0,.04-.35-.03-.7-.17-.88-.09-.11-.21-.14-.33-.08-.14,.07-.26,.25-.34,.5Z"/>
            <path d="M211.74,88.58c-.02,.05-.03,.11-.04,.17l.11-.05s.02-.07,.03-.1c.06-.2,.16-.35,.26-.4,.03-.02,.07-.02,.1-.02,.05,0,.09,.04,.14,.09,.13,.16,.19,.46,.16,.78,.03,0,.07,0,.1,0,.03-.35-.03-.7-.17-.88-.09-.11-.21-.14-.33-.08-.14,.07-.26,.25-.34,.5Z"/>
            <path d="M212.69,88.11c-.02,.05-.03,.11-.04,.17l.11-.05s.02-.07,.03-.1c.06-.2,.16-.35,.26-.4,.03-.02,.07-.02,.1-.02,.05,0,.09,.04,.14,.09,.13,.16,.19,.46,.16,.78,.03,0,.07,0,.1,0,.03-.35-.03-.7-.17-.88-.09-.11-.21-.14-.33-.08-.14,.07-.26,.25-.34,.5Z"/>
            <path d="M213.64,87.64c-.02,.05-.03,.11-.04,.17l.11-.05s.02-.07,.03-.1c.06-.2,.16-.35,.26-.4,.03-.02,.07-.02,.1-.02,.05,0,.09,.04,.14,.09,.13,.16,.19,.46,.16,.78,.03,0,.07,0,.1,0,.03-.35-.03-.7-.17-.88-.09-.11-.21-.14-.33-.08-.14,.07-.26,.25-.34,.5Z"/>
            <path d="M214.58,87.17c-.02,.05-.03,.11-.04,.17l.11-.05s.02-.07,.03-.1c.06-.2,.16-.35,.26-.4,.03-.02,.07-.02,.1-.02,.05,0,.09,.04,.14,.09,.13,.16,.19,.46,.16,.78,.03,0,.07,0,.1,0,.04-.35-.03-.7-.17-.88-.09-.11-.21-.14-.33-.08-.14,.07-.26,.25-.34,.5Z"/>
            <path d="M215.53,86.7c-.02,.05-.03,.11-.04,.17l.11-.05s.02-.07,.03-.1c.06-.2,.16-.35,.26-.4,.03-.02,.07-.02,.1-.02,.05,0,.09,.04,.14,.09,.13,.16,.19,.46,.16,.78,.03,0,.07,0,.1,0,.03-.35-.03-.7-.17-.88-.09-.11-.21-.14-.33-.08-.14,.07-.26,.25-.34,.5Z"/>
          </g>
        </g>
        <path class="cls-12" d="M217.46,101.42l-.85,.45h0c-.55-1.3-1.02-1.6-1.64-2.69-.97-1.69-1.96-1.86-2.44-1.76-.48,.1,.19,1.03,.78,2.17,.35,.67,.54,1.3,.75,1.87l-3.03-3.64s.32,1.63,.47,2.23c.15,.6,.21,.81,2.28,2.92,.15,.15,.29,.28,.41,.39h0c.66,.68,1.46,1.33,2.47,2.27,1.01,.94,2.17,1.65,3.04,1.79l-2.24-5.99Z"/>
        <g>
          <g>
            <path class="cls-11" d="M232.72,95.27l-11.01-6.1c-.83-1.08-1.43-1.79-2.63-2.42-.53-.13-1.07-.18-1.54-.06-1.55,.4-4.23,2.69-2.29,3.89,1.15,.71,2.87,.72,3.89,1.09,.54,.19,1.8,.93,2.31,1.28,2.73,1.81,6.4,4.44,9.35,6.45,1.11,.76,2.19,1.48,3.41,.4,1.99-1.75-1.49-4.53-1.49-4.53Z"/>
            <path class="cls-12" d="M218.01,88.79l-2.43,1.97s.16,.04,.27,.13c0,0,.91-.6,1.4-.93,.46-.3,1.01-.7,1.01-.7,0,0,1.17-.11,1.67-.49,.5-.38-1.93,.02-1.93,.02Z"/>
          </g>
          <g>
            <g id="Pencil">
              <g>
                <path class="cls-11" d="M213.55,90.43l-1.18,1.84c-.03,.05,.02,.12,.08,.1l2.07-.74-.96-1.19Z"/>
                <polygon class="cls-12" points="212.43 92.37 212.44 92.37 214.51 91.63 214 91 213.79 91.16 212.43 92.29 212.43 92.37"/>
                <path class="cls-24" d="M212.44,92.37c-.06,.02-.11-.05-.08-.1l.23-.36h0c.02,.14,.12,.25,.25,.29h.04s-.44,.17-.44,.17Z"/>
                <path class="cls-23" d="M221.73,85.89l-.16,.13-.19,.15-6.86,5.46c-.25-.01-.47-.14-.64-.32-.26-.27-.4-.64-.32-.87l6.86-5.45,.37-.29c-.23,.2,.72,1.4,.95,1.2Z"/>
                <path class="cls-26" d="M221.73,85.89l-.16,.13-.19,.15-6.86,5.46c-.32-.04-.56-.19-.75-.44l7.23-5.82s-.01-.04,0-.04c.25,.34,.6,.67,.73,.56Z"/>
                <path class="cls-7" d="M221.13,86.37l-.35,.28c-.1,.08-.34-.08-.56-.32-.3-.31-.52-.78-.39-.89l.26-.21,.09-.07c-.13,.11,.09,.58,.39,.89,.21,.22,.44,.39,.55,.32h0s0,0,.01,0Z"/>
                <path class="cls-26" d="M221.04,86.44c-.23,.2-1.18-1.01-.95-1.2l.35-.28c-.23,.2,.72,1.4,.95,1.2l-.35,.28Z"/>
                <path class="cls-7" d="M221.73,85.89l-.35,.28c-.23,.2-1.15-.96-.97-1.19,0,0,0,0,.01-.01l.35-.28c-.23,.2,.72,1.4,.95,1.2Z"/>
                <path class="cls-11" d="M212.37,92.35s.04,.02,.06,.02c-.02,0-.04,0-.06-.02Z"/>
                <path class="cls-12" d="M222.46,85.32l-.73,.57c-.1,.08-.34-.08-.56-.31-.3-.31-.52-.78-.39-.89t0,0l.74-.58c.3-.23,.85,.31,1.01,.76,.06,.17,.05,.33-.06,.44Z"/>
              </g>
              <path class="cls-1" d="M221.95,85.22c-.31-.22-.54-.64-.51-.92,.01-.1,.06-.18,.12-.22,.3-.15,.8,.36,.96,.8,.06,.17,.05,.32-.06,.43-.11,.09-.31,.06-.52-.09Z"/>
            </g>
            <path class="cls-11" d="M218.38,86.59c-.3-.16-.59-.25-.67-.28-.38-.12-.69-.17-1.07-.13-.14,.01-.28,.04-.39,.12-.12,.08-.19,.21-.27,.32-.42,.61-1.12,.93-1.54,1.53-.37,.53-.84,2.08-.43,2.47,.26,.24,.8-.35,1.01-.79,.08,.35,.59,.22,.96-.5,.31-.6,.69-1.35,.69-1.35l1.71-1.4Z"/>
            <path class="cls-12" d="M216.57,87.4s-.2,.12-.18,.4c.02,.28,.1,.53,.1,.53l.18-.32-.09-.61Z"/>
            <path class="cls-11" d="M221.71,89.18c-.68-.87-.84-1.7-1.81-1.88-.97-.18-1.38,.03-2.49-.09-1.57-.17-.89,1.2,.44,1.54,1.32,.35,2.09,.02,2.09,.02,0,0,1.16,1.84,1.77,.4Z"/>
          </g>
        </g>
        <path class="cls-11" d="M234.05,81.09c.87-.27,2.84-.4,3.91,.26,1.07,.66,2.12,1.89,3.07,5.11,.74,2.5,2.42,9.24,2.13,11.4-.29,2.17-8.07,3.56-8.07,3.56l-1.05-20.33Z"/>
        <path class="cls-3" d="M242.16,100.95c-.71-1.29-1.8-3.23-2.35-5.51-.72-4.64,.9-6.73-.86-11.21-.81-2.05-3.35-3.56-5.5-3.04-.56,.14-.78,.14-1.31,.28,.37,1.08-3.57,2.23-5.38,1.23-.77,.24-4.46,1.88-4.46,1.88-.78,1.56-1.23,3.33-1.61,6.69-.15,1.36,.41,2.85,1.16,4.15,1.97,3.46,2.82,7.44,2.29,11.39-.02,.11-.03,.23-.05,.35,0,0,3.34,3.73,11.55,2.24,7.3-1.33,7.52-6.21,7.52-6.21,0,0-.51-1.34-1-2.23Z"/>
        <path class="cls-11" d="M217.34,100.89c.23-2.48,.62-6.32,1.16-10.38,.53-3.95,1.25-4.85,3.81-5.94,3.71,2.29,2.45,9.64,2.45,9.64,0,0-1.36,7.84-2.2,10.36-.55,1.64-1.72,3.51-3.52,2.63-1.8-.88-1.93-3.84-1.69-6.32Z"/>
        <g>
          <path class="cls-12" d="M221.79,73.31s-1.32,2.08-1.15,2.26c.17,.19,1.15,.34,1.15,.34v-2.6Z"/>
          <path class="cls-11" d="M225.18,67.29c-1.15,.67-3.13,1.91-3.42,6.29-.3,4.5,.37,6.03,1.01,6.58,.43,.37,3.38,.46,4.2,.19,1.38-.45,4.15-2.38,5.43-4.76,1.51-2.8,1.65-6.44-.33-7.75-2.8-1.85-5.91-1.13-6.88-.56Z"/>
          <path class="cls-26" d="M229.06,80.41c-.87-.26-1.18-.45-1.72-.89-.57-.46-1.42-2.44-1.37-2.98,.02,0,.79,.56,1.81-.43,1.03-1,1.06-2.84-.34-3.22-1-.28-1.69,.5-2.08,1.29-.06,.13-.14,.27-.28,.3-.21,.05-.37-.19-.46-.4-.11-.26-.15-.49-.34-.68-.32-.33-.53-.69-.57-1.15-.03-.37,.03-.75,.1-1.12-.45,.39-.8,.9-1.02,1.46-.32-.65-.31-1.46,.03-2.11-.48,.53-.82,1.19-.97,1.9-.39-.32-.6-.83-.67-1.34-.21-1.34,.35-2.74,1.27-3.73,.92-1,2.18-1.64,3.47-2.06,1.25-.4,2.58-.53,3.9-.45,2.79,.17,4.31,1.53,4.74,2.04,.22,.26,.64,1.11,.7,1.9,1.68,.85,1.72,2.95,1.34,4.56-.33,1.4-1.27,2.67-2.18,3.77-.48,.57-.97,1.12-1.42,1.71-.22,.28-.45,.56-.62,.88-.27,.49-.46,.9-.46,.9,0,0-1.7,.21-2.85-.13Z"/>
          <path class="cls-12" d="M226.26,80.51l-.16-.68s-.49,.22-1.78,.29c-1.26,.07-1.71-.15-1.73-.16,.06,.07,.12,.14,.19,.2,.36,.31,2.33,.48,3.49,.35Z"/>
        </g>
      </g>
      <g>
        <path class="cls-26" d="M228.12,125.27c1.46-.07,2.61-1.15,6.09-2.6,6.43-2.68,11.25-4.82,13.09-8.19,1.84-3.37,3.14-18.47,2.68-22.67-.06-.56-.17-1.02-.31-1.4l.45-.07-1.17-1h0c-1.2-.98-3.16-.1-4.63,.7-4.21,2.29-7.5,4.51-10.1,12.55-1.96,6.04-3.25,16.94-5.95,19.89"/>
        <path class="cls-27" d="M245.43,90.59c-4.21,2.29-8.16,4.79-10.39,13.03-2.21,8.15-3.63,20.53-8.76,21.9,0,0,2.32,.92,9.42-2.08,2.26-.96,5-2.7,6.81-3.71,3.53-1.98,5.67-3.61,6.01-4.21,1.87-3.35,3.14-18.47,2.68-22.67-.46-4.21-3.66-3.4-5.77-2.25Z"/>
      </g>
    </g>
    <g id="Character-2" data-name="Character">
      <g id="Legs-2" data-name="Legs">
        <g>
          <g>
            <path class="cls-12" d="M186.63,141.27c0-.05,.81-2.97,.81-2.97,0,0-.26,.27-1.95-.18-.86-.23-1.84-.77-1.84-.77l-.48,2.13c-.45,.82-1.94,.44-3.57,.26-.27-.03-.56-.08-.84-.13h-.02c-.88-.05-1.77,.48-.85,1.23,.92,.75,2.43,1.04,3.82,1.29,1.68,.3,4.62,.8,4.92-.87Z"/>
            <g>
              <path class="cls-24" d="M174.91,141.01s-.18,.34-.12,.9c.03,.33,.84,1.43,2.26,2.1,1.42,.68,3.18,.72,4,.96,.82,.24,1.58,.71,2.55,.95,1,.24,1.93,.36,2.9-.28,.18-.28,.38-.91,.32-.98-.15-.17-11.9-3.65-11.9-3.65Z"/>
              <path class="cls-26" d="M182.92,139.77c-.63,.43-1.92,.13-3.32-.03-1.32-.15-2.8-.61-3.7-.3-.9,.31-1.65,1.37-.43,2.72,.35,.39,1.09,1.08,1.68,1.29,1.51,.54,2.86,.58,3.82,.82,1.26,.31,1.95,.87,3.11,1,1.51,.17,2.46-.21,2.72-.62,.26-.4,.5-3.65-.14-3.58,0,0-.27,1.05-2.74,.03-1.08-.45-1.06-1.1-1.02-1.34Z"/>
              <path class="cls-10" d="M178.74,141.51s.14-1.37,1.15-1.73c0,0,.33-.15,.56,.07,0,0-.94,.14-1.25,1.75,0,0-.05,.11-.25,.07-.07-.01-.22-.04-.21-.15Z"/>
              <path class="cls-10" d="M181.31,139.96s0-.05-.24-.09c-.17-.03-.28,.03-.28,.03,0,0-.76,.33-.9,1.76,0,0,0,.17,.23,.22,.23,.05,.27-.14,.27-.14,0,0,.16-1.51,.91-1.78Z"/>
              <path class="cls-10" d="M182.12,139.99s-.04-.09-.22-.09c-.22,0-.28,.09-.28,.09,0,0-.54,.55-.54,1.75,0,0-.02,.2,.26,.22,.28,.02,.24-.21,.24-.21,0,0,.1-1.53,.54-1.77Z"/>
            </g>
          </g>
          <g>
            <path class="cls-13" d="M187.02,122.01c-.94,3.98-3.85,15.89-3.85,15.89,0,0,2.13,1.91,4.44,1.04,2.46-6.5,6.88-10.95,6.85-15.71l-7.44-1.23Z"/>
            <path class="cls-33" d="M187.02,122.01c-.94,3.98-3.85,15.89-3.85,15.89,0,0,2.13,1.91,4.44,1.04,2.46-6.5,6.88-10.95,6.85-15.71l-7.44-1.23Z"/>
          </g>
        </g>
        <g>
          <g>
            <path class="cls-12" d="M178.16,145.39c.25-.37,1.2-2.97,1.2-2.97,0,0-.99,.56-2.69,.16-.86-.21-1.67-1.14-1.67-1.14l-.73,2.5c-.43,.83-1.82,.56-3.45,.41-.28-.02-.56-.06-.84-.11h-.02c-.88-.03-1.75,.52-.82,1.25,.93,.73,2.45,.98,3.85,1.19,1.68,.26,4.22,.11,5.16-1.29Z"/>
            <g>
              <path class="cls-24" d="M165.46,145.31s-.18,.37-.11,.97c.04,.35,.94,1.51,2.48,2.2,1.54,.69,3.43,.69,4.32,.92,.89,.23,1.71,.72,2.76,.95,1.08,.23,2.08,.34,3.11-.38,.18-.3,.38-.99,.32-1.06-.17-.18-12.88-3.61-12.88-3.61Z"/>
              <path class="cls-26" d="M174.01,143.75c-.1,.07-.2,.14-.31,.19-.11,.06-.22,.05-.34,.07-.27,.03-.55,.03-.82,.02-.69-.03-1.38-.14-2.07-.2-1.42-.13-3.03-.58-3.98-.23-.95,.36-1.82,1.51-.49,2.93,.39,.41,1.18,1.1,1.79,1.36,1.58,.66,3.23,.54,4.27,.77,1.36,.3,2.11,.88,3.37,1,1.62,.15,2.64-.29,2.91-.73,.15-.25-.02-1.52,.19-2.51,.18-.85,.13-1.43-.18-1.39-.05,.11-.16,.21-.24,.3-.1,.12-.22,.21-.36,.28-.19,.1-.4,.15-.61,.2-.37,.09-.75,.18-1.13,.16-.11,0-.22-.03-.31-.1-.11-.09-.15-.24-.18-.38-.03-.13-.05-.25-.08-.38-.01-.07-.03-.14-.07-.2-.05-.07-.12-.11-.19-.15-.23-.13-.47-.25-.62-.47-.11-.17-.15-.38-.18-.58,0-.04-.01-.07-.04-.1-.05-.04-.11,0-.16,.03-.06,.04-.11,.07-.17,.11Z"/>
              <path class="cls-10" d="M169.58,145.75s.12-1.48,1.19-1.89c0,0,.35-.17,.6,.06,0,0-1.01,.17-1.29,1.91,0,0-.05,.12-.27,.08-.07-.01-.24-.04-.23-.16Z"/>
              <path class="cls-10" d="M172.3,144.02s0-.05-.26-.09c-.19-.03-.3,.04-.3,.04,0,0-.8,.37-.92,1.91,0,0,.01,.19,.26,.23,.24,.05,.29-.16,.29-.16,0,0,.13-1.62,.93-1.94Z"/>
              <path class="cls-10" d="M173.18,144.03s-.05-.09-.24-.09c-.24,0-.29,.1-.29,.1,0,0-.56,.61-.54,1.89,0,0-.02,.22,.28,.23s.25-.23,.25-.23c0,0,.06-1.64,.53-1.91Z"/>
            </g>
          </g>
          <g>
            <path class="cls-13" d="M178.99,125.79c-.97,2.99-3.45,11.5-4.59,15.88,0,0,2.04,1.83,4.66,1.67,1.39-3.27,7.72-12.33,6.95-16.21-.49-2.45-3.15-1.74-3.15-1.74l-3.87,.39Z"/>
            <path class="cls-32" d="M178.99,125.79c-.97,2.99-3.45,11.5-4.59,15.88,0,0,2.04,1.83,4.66,1.67,1.39-3.27,7.72-12.33,6.95-16.21-.49-2.45-3.15-1.74-3.15-1.74l-3.87,.39Z"/>
            <path class="cls-32" d="M185.49,130.72c-.91-.64-2.95-1.91-3.19-2.56,0,0,.32,2.05,2.85,3.46l.34-.91Z"/>
          </g>
        </g>
      </g>
      <g>
        <g>
          <path class="cls-24" d="M218.7,155.92l-2.7-22.57-2.21-.11,3.8,22.68h0c.01,.07,.06,.14,.15,.2,.21,.14,.56,.15,.79,.04,.12-.06,.18-.15,.17-.23h0Z"/>
          <g>
            <path class="cls-26" d="M188.42,131.31h-2.21l-3.22,21.31h0c0,.09,.04,.18,.16,.24,.22,.13,.57,.13,.79,0,.09-.05,.14-.12,.16-.19h0s4.32-21.37,4.32-21.37Z"/>
            <path class="cls-24" d="M186.2,131.31l-.9,5.95c.4,.35,1.2,.81,1.7,1.04l1.41-6.99h-2.21Z"/>
          </g>
          <g>
            <path class="cls-26" d="M203.92,163.49l-2.08-22.95-2.21-.11,3.18,23.06h0c.01,.07,.06,.14,.15,.2,.21,.14,.56,.15,.79,.04,.12-.06,.18-.15,.18-.23h0Z"/>
            <path class="cls-24" d="M202.14,143.89l-.3-3.35-2.21-.11,.5,3.63c.49,.15,1.37,.04,2.01-.16Z"/>
          </g>
          <path class="cls-24" d="M200.49,124.28h-2.21l-3.22,21.31h0c0,.09,.05,.18,.16,.24,.22,.13,.57,.13,.79,0,.09-.05,.14-.12,.16-.19h0s4.32-21.37,4.32-21.37Z"/>
        </g>
        <path class="cls-6" d="M184.84,130.87c-.31-1.75,1.11-3.11,3.79-4.91,2.68-1.81,6.1-3.6,7.75-4.36,2.24-1.03,4.53-.93,7.39,.54,3.98,2.05,15.96,9.31,15.96,9.31,0,0-17.91,10.11-21.36,9.66-3.45-.45-12.06-6.05-12.74-8.03-.68-1.97-.79-2.21-.79-2.21Z"/>
        <path class="cls-13" d="M200.11,138.98c-2.57,2.33-5.26,.32-9.51-2.43-4.81-3.12-5.76-5.68-5.76-5.68,0,0,0,1.91,.36,2.81,.36,.9,1.14,1.91,4.61,4.31,3.47,2.39,5.98,3.59,8.32,4.03l1.84-.25"/>
        <path class="cls-26" d="M190.59,136.55c-4.81-3.12-5.76-5.68-5.76-5.68,0,0,0,1.91,.36,2.81,.36,.9,1.14,1.91,4.61,4.31,3.47,2.39,5.98,3.59,8.32,4.03l1.84-.25,.14-2.79c-2.57,2.33-5.26,.32-9.51-2.43Z"/>
      </g>
      <g id="Top-2" data-name="Top">
        <g>
          <g>
            <path class="cls-20" d="M213.01,121.64c-3.33-.33-12.81-2.71-15.13-3.11-4.42-.76-6.68-.87-7.95-.47-1.27,.4-2.37,1.82-2.76,3.35-.46,1.8-.7,2.72-.7,2.72,0,0,9.73,3.42,14.65,3.99,4.92,.58,11.89-6.48,11.89-6.48Z"/>
            <path class="cls-22" d="M213.01,121.64c-3.33-.33-12.81-2.71-15.13-3.11-4.42-.76-6.68-.87-7.95-.47-1.27,.4-2.37,1.82-2.76,3.35-.46,1.8-.7,2.72-.7,2.72,0,0,9.73,3.42,14.65,3.99,4.92,.58,11.89-6.48,11.89-6.48Z"/>
          </g>
          <g>
            <path class="cls-20" d="M213.01,121.64c.19,4.7,.03,9.08-2.23,11.44-1.52,1.59-9.15,5.73-14.07,4.1-4.85-1.6-14.89-9.06-15.89-9.81-1.01-.75-1.92-1.26-1.83-1.58,1.35-4.49,3.33-4.85,7-4.04,4.49,.99,14.34,5.01,14.34,5.01l12.68-5.12Z"/>
            <path class="cls-21" d="M213.01,121.64c.19,4.7,.03,9.08-2.23,11.44-1.52,1.59-9.15,5.73-14.07,4.1-4.85-1.6-14.89-9.06-15.89-9.81-1.01-.75-1.92-1.26-1.83-1.58,1.35-4.49,3.33-4.85,7-4.04,4.49,.99,14.34,5.01,14.34,5.01l12.68-5.12Z"/>
          </g>
        </g>
        <g>
          <g>
            <polygon class="cls-12" points="193.8 96.77 195.64 102.14 201.5 100.34 199.7 94.2 193.8 96.77"/>
            <g>
              <path class="cls-15" d="M190.07,89.59s-1.39,2-1.24,2.2c.15,.2,1.13,.41,1.13,.41l.11-2.61Z"/>
              <path class="cls-24" d="M190.08,90.91c-.91,0-1.66-.74-1.66-1.66s.74-1.66,1.66-1.66,1.66,.74,1.66,1.66-.74,1.66-1.66,1.66Zm0-3.01c-.75,0-1.35,.61-1.35,1.35s.61,1.35,1.35,1.35,1.35-.61,1.35-1.35-.61-1.35-1.35-1.35Z"/>
              <path class="cls-12" d="M193.91,84.06c-2.72,.51-3.53,1.68-3.89,5.98-.37,4.49,.06,5.92,.63,6.54,.39,.42,2.6,.54,3.73,.26,1.41-.35,4.6-1.4,6.13-3.63,1.8-2.62,2.34-6.22,.51-7.74-2.58-2.14-6.01-1.61-7.12-1.4Z"/>
              <path class="cls-15" d="M193.86,96.93c-1.17,.26-2.55,.03-3.08-.27,.05,.01,.89,.23,1.97-.07,1.12-.31,1.32-.7,1.32-.7l-.22,1.04Z"/>
            </g>
            <g>
              <path class="cls-24" d="M189.52,85.82s0,0,0,0c.76,.52,1.69,.74,2.6,.88-.07,.73,.16,1.45,.38,2.15,.16,.48,.72,2,1.34,1.16,.45-.6,.85-1.15,1.7-1,1.41,.24,1.55,2.05,.64,3.12-.91,1.07-1.73,.63-1.73,.63,0,0-.13,1.94,.89,3.31,0,0,1.53,.94,3.67,.23,1.35-.45,3.3-2.15,4.02-3.48,1.98-3.66,1.99-7.16-.41-8.24-.22-1.75-1.58-2.57-3.14-2.97-2.16-.55-4.41,.81-6.5-.09-.44-.19-.85-.46-1.3-.62-.25-.09-.55-.14-.78,0-.19,.13-.28,.37-.33,.59-.1,.42-.14,.88,.08,1.25-.32-.15-.64-.31-.98-.36-.35-.06-.73,0-.99,.22-.25,.21-.37,.54-.4,.87-.09,.92,.48,1.8,1.23,2.33Z"/>
              <path class="cls-24" d="M202.66,85.17l1.64-.92c-.25-.45-.83-.62-1.28-.36-.45,.25-.62,.83-.36,1.28Z"/>
            </g>
            <polygon class="cls-24" points="193.83 90.14 188.57 89.16 188.61 88.91 193.88 89.89 193.83 90.14"/>
          </g>
          <g>
            <path class="cls-26" d="M200.9,98.32l-.26-.88c3.76-1.78,6.87,1.11,8.9,6.2,2.17,5.44,3.5,11.59,3.52,19.12,0,0-2.52,3.35-6.8,5.04-4.53,1.8-10.86,1.03-12.83-3.67,0,0,.01-3.13-.14-5.85-.13-2.33-.93-5.65-2.07-8.29-1.07-2.5-2.49-7.14,.43-8.87,.85-.51,2.18-1.05,3.34-1.61,2.65,.88,6.25-.15,5.91-1.2Z"/>
            <path class="cls-23" d="M192.72,100.57c.32-.83,1.23-2.43,1.49-2.62,0,0,1.97,.47,4.03-.17,2.06-.64,2.15-1.23,2.15-1.23l-.15-.5s.15-.22,.71,.22c.55,.44,.83,.95,1.04,1.23,.21,.28,.06,1.69-1.45,2.68-1.51,.99-4.2,.57-5.21,.45-1.02-.12-1.83-.41-1.83-.41l-.77,.36Z"/>
          </g>
          <g>
            <path class="cls-26" d="M187.36,124.64c-1.44-.55-2.33-2.18-2.5-3.23-.18-1.06,.04-2.7,.6-3.66,.56-.96,1.91,6.89,1.91,6.89Z"/>
            <path class="cls-24" d="M185.43,117.92c.41-2.54,1.34-6.56,2.19-10.7,.82-4.03,1.94-5.22,4.04-6.09,5.1,3.04,2.81,12.03,2.81,12.03,0,0-2.23,6.31-3.28,8.85-.68,1.65-2.4,3.5-4.2,2.46-1.79-1.03-1.97-4.01-1.56-6.55Z"/>
          </g>
        </g>
      </g>
      <g>
        <path class="cls-26" d="M199.96,141.77c1.46-.07,2.61-1.15,6.09-2.6,6.43-2.68,11.25-4.82,13.09-8.19,1.84-3.37,3.14-18.47,2.68-22.67-.06-.56-.17-1.02-.31-1.4l.45-.07-1.17-1h0c-1.2-.98-3.16-.1-4.63,.7-4.21,2.29-7.5,4.51-10.1,12.55-1.96,6.04-3.25,16.94-5.95,19.89"/>
        <path class="cls-27" d="M217.27,107.09c-4.21,2.29-8.16,4.79-10.39,13.03-2.21,8.15-3.63,20.53-8.76,21.9,0,0,2.32,.92,9.42-2.08,2.26-.96,5-2.7,6.81-3.71,3.53-1.98,5.67-3.61,6.01-4.21,1.87-3.35,3.14-18.47,2.68-22.67-.46-4.21-3.66-3.4-5.77-2.25Z"/>
      </g>
    </g>
    <g id="Character-3" data-name="Character">
      <g id="Legs-3" data-name="Legs">
        <g>
          <path class="cls-10" d="M153.04,158.54s0-1.33,.94-1.78c0,0,.3-.18,.54,.02,0,0-.89,.22-1.03,1.8,0,0-.04,.11-.24,.09-.07,0-.22-.02-.22-.13Z"/>
          <g>
            <g>
              <path class="cls-30" d="M152.22,157.39c-1.46,.02-2.27-.17-4.01-.14-1.31,.02-1.79,1.63-.21,2.94,.44,.37,1.63,1.04,2.27,1.24,2.06,.63,3.56,.27,4.65,.4,1.42,.17,1.79,.57,2.95,.65,1.52,.11,2.07-.13,2.47-.6,.48-1.1,.18-1.5,.34-2.79,.09-.71,.04-1.01-.04-1-.47-.05-7.72-.7-8.43-.7Z"/>
              <path class="cls-8" d="M160.61,158.2c.23-.71,.91-3.63,.91-3.63,0,0-.95,.68-2.72,.44-.9-.12-1.51-2.47-1.51-2.47l-.51,3.91c-.35,.89-2.08,.94-3.76,.96-.28,0-.58,0-.87-.02h-.02c-.9,.06-1.74,.71-.71,1.36,1.03,.65,2.6,.74,4.05,.82,1.74,.09,4.62,.28,5.14-1.37Z"/>
            </g>
            <path class="cls-24" d="M158.76,136.65c-.52,3.92-1.8,17.98-1.8,17.98,0,0,2.27,1.79,4.41,.72,1.74-6.5,5.16-13.66,4.68-18.25l-7.29-.46Z"/>
          </g>
        </g>
        <g>
          <g>
            <path class="cls-30" d="M144.43,161.96c-1.46,.02-2.27-.17-4.01-.14-1.31,.02-1.79,1.63-.21,2.94,.44,.37,1.63,1.04,2.27,1.24,2.06,.63,3.56,.27,4.65,.4,1.42,.17,1.79,.57,2.95,.65,1.52,.11,2.07-.13,2.47-.6,.48-1.1,.18-1.5,.34-2.79,.09-.71,.04-1.01-.04-1-.47-.05-7.72-.7-8.43-.7Z"/>
            <path class="cls-8" d="M152.83,162.77c.23-.71,.91-3.63,.91-3.63,0,0-.95,.68-2.72,.44-.9-.12-1.51-2.47-1.51-2.47l-.51,3.91c-.35,.89-2.08,.94-3.76,.96-.28,0-.58,0-.87-.02h-.02c-.9,.06-1.74,.71-.71,1.36,1.03,.65,2.6,.75,4.05,.82,1.74,.09,4.62,.28,5.14-1.37Z"/>
          </g>
          <path class="cls-26" d="M151.39,141.07c-.65,2.97-1.66,14.11-2.32,18.43,0,0,1.95,1.18,4.46,.77,1.02-3.28,5.87-14.93,4.76-18.59-.7-2.31-3.2-1.37-3.2-1.37l-3.69,.75Z"/>
        </g>
      </g>
      <g>
        <g>
          <path class="cls-24" d="M190.29,172.21l-2.71-22.64-2.22-.11,3.81,22.74h0c.01,.07,.06,.14,.15,.2,.21,.14,.57,.15,.79,.04,.12-.06,.18-.15,.17-.24h0Z"/>
          <g>
            <path class="cls-26" d="M159.92,147.52h-2.22l-3.23,21.37h0c0,.09,.05,.18,.16,.24,.22,.13,.57,.13,.79,0,.09-.05,.14-.12,.16-.19h0s4.33-21.43,4.33-21.43Z"/>
            <path class="cls-24" d="M157.7,147.52l-.9,5.97c.4,.35,1.2,.81,1.7,1.04l1.42-7.01h-2.22Z"/>
          </g>
          <g>
            <path class="cls-26" d="M175.46,179.8l-2.09-23.02-2.22-.11,3.19,23.13h0c.01,.07,.06,.14,.15,.2,.21,.14,.57,.15,.79,.04,.12-.06,.18-.15,.17-.24h0Z"/>
            <path class="cls-24" d="M173.68,160.14l-.3-3.36-2.22-.11,.5,3.64c.49,.15,1.37,.04,2.02-.16Z"/>
          </g>
          <path class="cls-24" d="M172.03,140.48h-2.22l-3.23,21.37h0c0,.09,.05,.18,.16,.24,.22,.13,.57,.13,.79,0,.09-.05,.14-.12,.16-.19h0s4.33-21.43,4.33-21.43Z"/>
        </g>
        <path class="cls-6" d="M156.33,147.08c-.31-1.75,1.11-3.12,3.8-4.93,2.68-1.81,6.11-3.61,7.77-4.37,2.24-1.03,4.54-.94,7.41,.54,3.99,2.05,16.01,9.34,16.01,9.34,0,0-17.96,10.14-21.42,9.69-3.46-.45-12.09-6.07-12.78-8.05-.68-1.98-.8-2.22-.8-2.22Z"/>
        <path class="cls-13" d="M171.64,155.22c-2.58,2.33-5.27,.33-9.54-2.44-4.83-3.13-5.77-5.69-5.77-5.69,0,0,0,1.92,.36,2.82,.36,.9,1.14,1.92,4.62,4.32,3.48,2.4,6,3.6,8.34,4.05l1.85-.26"/>
        <path class="cls-26" d="M162.1,152.77c-4.83-3.13-5.77-5.69-5.77-5.69,0,0,0,1.92,.36,2.82,.36,.9,1.14,1.92,4.62,4.32,3.48,2.4,6,3.6,8.34,4.05l1.85-.26,.14-2.79c-2.58,2.33-5.27,.33-9.54-2.44Z"/>
      </g>
      <g id="Top-3" data-name="Top">
        <g>
          <path class="cls-24" d="M182.36,137.83s-7.36-2.12-12.39-3.24c-4.24-.95-5.95-1.15-7.5-1.07-1.66,.08-3.47,.79-3.72,3.02-.17,1.52-.33,3.04-.33,3.04,0,0,8.67,4.19,13.43,4.75s10.51-6.49,10.51-6.49Z"/>
          <path class="cls-26" d="M182.61,137.83c1.55,4.48,1.3,8.77-1.41,11.29-1.56,1.45-8.85,5.54-13.61,3.97-4.69-1.55-13.45-9.75-14.42-10.48-.98-.73-1.86-1.22-1.77-1.53,1.31-4.35,3.22-4.69,6.77-3.91,4.34,.96,12.92,5.83,12.92,5.83l11.52-5.18Z"/>
        </g>
        <g>
          <g>
            <polygon class="cls-8" points="168.23 114.03 168.63 119.68 174.97 118.81 174.28 112.66 168.23 114.03"/>
            <g>
              <path class="cls-9" d="M165.08,107.44s-1.39,1.63-1.26,1.83c.13,.2,.86,.49,.86,.49l.39-2.32Z"/>
              <path class="cls-24" d="M177.95,103.66c-.13-1.36-1.28-2.43-1.87-2.75-1.62-.88-3.16-1.28-4.96-1.27-2.04,.02-4.42,.63-5.61,2.43-.44,.67-.68,1.49-.62,2.29,.06,.89,.38,1.57,.94,2.25,.5,.62,1.03,1.21,1.53,1.83,.49,.61,.87,1.29,1.34,1.89,.28,.36,.58,.72,.81,1.1,.02,.03,.03,.05,.04,.08-.39,.03-.75-.15-.75-.15,0,0-.13,2.3,1.65,3.37,0,0,2.17,.91,4.07,.13,.5-.75,1.58-1.61,2.69-3.06,2.22-2.87,2.11-6.14,.74-8.15Z"/>
              <path class="cls-8" d="M170.57,111.04c-.28,.33-.65,.45-1.03,.48-.39,.03-.75-.15-.75-.15,0,0,.13,1.83,1.21,3.05-.4,.21-.96,.29-1.16,.33-1.11,.2-3.17-.17-3.53-.6-.53-.63-1.33-2.23-.31-6.45,.08-1.33-.08-1.34,.05-1.9,.17-.76,.47-1.29,.85-1.75,.02,.62,.75,1.43,1.7,1.5-.36,.39-.54,.94-.46,1.46,.09,.62,.49,1.15,.88,1.64,.02,.03,.05,.06,.08,.07,.06,.03,.34,.04,.39-.01,.44-.52,1.04-1.11,2.03-.65,1.14,.53,.92,1.97,.05,2.97Z"/>
              <path class="cls-9" d="M165.43,114.24c.45,.32,1.82,.59,2.86,.56l-.07-.79s-.47,.22-1.29,.31c-.81,.09-1.49-.07-1.5-.08Z"/>
              <path class="cls-24" d="M167.77,110.16c-.51-.25-.71-.85-.46-1.35,.25-.5,.86-.7,1.37-.45l-.9,1.8Z"/>
            </g>
          </g>
          <path class="cls-13" d="M174.66,116.09l-.05-.5c3.64-.66,6.15-.8,7.32,4.37,.67,2.97,.95,6.31,1.33,12.49,.19,3.04,.15,4.04,.65,9.61,0,0-1.6,2.04-7.99,2.48-2.56,.18-9.51-.82-10.51-3.32,0,0,.32-5.37,.14-7.99-.15-2.21-.64-3.83-1.47-5.93-.37-.94-.35-1.56-.59-2.51-.65-2.55-.98-5.78,2.06-6.99,.89-.35,1.66-.64,2.85-1,2.4,1.24,6.4,.35,6.24-.71Z"/>
          <path class="cls-8" d="M158.68,98.99c.01-1.32,.21-2,.54-3.24s.29-2.43,.31-2.96c.02-.66,.02-1.22,0-1.26-.09-.33-.83-.04-.98,.78-.09,.45-.1,.48-.22,1.01-.02,.08-.13,.46-.15,.17-.02-.4-.05-1.34-.06-1.71-.01-.37-.14-.77-.19-1.08-.06-.35-.13-.7-.2-1.05-.09-.44-.2-.92-.32-1.35-.03-.11-.14-.21-.29-.14-.45,.2-.52,.66-.52,1.15,0,.31,.04,.62,.05,.93-.15-.76-.3-1.52-.46-2.28-.02-.08-.03-.15-.08-.21-.12-.14-.35-.09-.51,.01-.16,.11-.26,.22-.35,.4-.09,.17-.12,.41-.13,.65-.17,.09-.31,.15-.45,.32-.2,.24-.21,.57-.2,.88,0,.04,0,.09,0,.13,.03,.43,.05,1.29,.07,1.72-.14-.56-.22-1.01-.32-1.33-.04-.11-.07-.15-.12-.16-.04-.01-.08,0-.12,.03-.2,.12-.31,.36-.35,.59-.03,.23,0,.47,.03,.7,.11,.79,.25,1.58,.36,2.36,.04,.28,.06,.7,.03,1.07-.03,.31-.05,.6-.08,.9-.07,.61-.15,1.03,.02,1.63,.07,.24,.17,.47,.24,.71,.11,.34,.32,.97,.32,1.34,0,.22-.04,1.13-.07,1.62-.03,.65-.19,5.32-.33,8.55-.11,2.38-.04,2.71,1.32,4.8,.82,1.25,4.33,6.14,6.81,9.68,1.16,1.65,1.78,2.98,1.78,2.98,.51,.37,1.59-.78,2.31-2.68,.6-1.58,.96-3.72,.56-5.33-.41-1.6-1.42-1.96-2.9-3.63-2.41-2.71-4.03-5.56-4.03-5.56,0,0-1.37-10.18-1.36-11.12Z"/>
        </g>
        <path class="cls-24" d="M178.58,122.17c.54-.34,1.19-.42,1.79-.61,.49-.16,.95-.54,1.28-.94,.66-.82,.81-1.95,.56-2.94-.23-.92-.73-1.67-1.35-2.38,.51,.27,.96,.66,1.3,1.12-.36-1.28-1.25-2.31-1.9-3.44-.33-.57-.61-1.08-.77-1.73-.16-.68-.22-1.38-.23-2.08-.06-3.21-.11-4.38-1.29-5.48-.1,1.52-.81,4.76-5.3,8.16-.99,.75-3.11,.65-3.85-.45-.15,.81-.29,1.63-.46,2.44-.17,.79-.27,1.79-.75,2.45-.69,.94-1.22,2.03-1.26,3.19-.04,1.16,.48,2.39,1.48,2.97-.21-.52-.21-1.13,0-1.65,.25,.8,.55,1.66,1.25,2.11,.79,.52,1.84,.35,2.74,.64,.45,.15,.85,.4,1.29,.58,.82,.34,1.76,.38,2.62,.12,1.23-.38,1.84-1.43,2.88-2.08Z"/>
      </g>
      <g>
        <path class="cls-13" d="M171.5,158.01c1.47-.07,2.62-1.15,6.11-2.61,6.45-2.69,11.28-4.83,13.12-8.21,1.84-3.38,3.15-18.52,2.69-22.74-.06-.56-.17-1.02-.32-1.4l.45-.07-1.17-1h0c-1.2-.98-3.16-.1-4.64,.7-4.22,2.3-7.52,4.53-10.13,12.59-1.96,6.06-3.26,16.99-5.97,19.94"/>
        <path class="cls-26" d="M193.1,123.06l.45-.07-1.17-1h0c-1.2-.98-3.16-.1-4.64,.7-4.22,2.3-7.52,4.53-10.13,12.59-1.96,6.06-3.26,16.99-5.97,19.94l-.14,2.79c1.47-.07,2.62-1.15,6.11-2.61,6.45-2.69,11.28-4.83,13.12-8.21,1.84-3.38,3.15-18.52,2.69-22.74-.06-.56-.17-1.02-.32-1.4Z"/>
        <path class="cls-27" d="M188.86,123.23c-4.22,2.3-8.19,4.81-10.42,13.07-2.21,8.18-3.64,20.59-8.78,21.97,0,0,2.32,.92,9.45-2.09,2.27-.96,5.02-2.71,6.82-3.72,3.54-1.99,5.69-3.62,6.03-4.22,1.87-3.36,3.15-18.52,2.69-22.74-.46-4.22-3.67-3.41-5.78-2.26Z"/>
      </g>
    </g>
  </g>
  <g id="Capa_10" data-name="Capa 10">
    <image width="600" height="600" transform="translate(114.8 -4.31) scale(.09)" xlink:href="../../../../Users/fernandabezares/Desktop/IAP CHIAPAS/IDENTIDAD/logoiap.png"/>
  </g>
</svg>